<?xml version="1.0" encoding="utf-8"?>
<!-- Generator: Adobe Illustrator 28.1.0, SVG Export Plug-In . SVG Version: 6.00 Build 0)  -->
<svg version="1.1" id="Layer_1" xmlns="http://www.w3.org/2000/svg" xmlns:xlink="http://www.w3.org/1999/xlink" x="0px" y="0px"
	 viewBox="0 0 380 290" style="enable-background:new 0 0 380 290;" xml:space="preserve">
<style type="text/css">
	.st0{display:none;}
</style>
<path d="M115.5,283.7l-2-2V281l2-2h0v-16l-1.9-1.9v-0.8l2-2h7.4c2.7,0,4.8,0.7,6.4,2.2c1.4,1.4,2.1,3.2,2.1,5.3c0,2.2-0.7,4-2.1,5.4
	c-1.6,1.6-3.7,2.5-6.1,2.5h-1.9v5.3h0l2,2v0.8l-2,2H115.5z M122.7,269L122.7,269c1.2,0,1.7-0.4,2-0.7c0.2-0.2,0.8-0.7,0.8-2.3
	c0-1.6-0.5-2.1-0.7-2.3l-0.1-0.1c-0.2-0.2-0.8-0.5-2.2-0.5h-0.9v5.9H122.7z M149.1,283.7l-1.9-1.3l-3.1-8.2v4.8l1.9,1.9v0.8l-2,2
	h-5.8l-2-2V281l1.9-1.9V263l-1.9-1.9v-0.8l2-2h7.1c2.6,0,4.7,0.7,6.1,2l-0.1,0.1l0.2-0.1c1.2,1.2,1.8,2.9,1.8,4.9
	c0,2.1-0.7,3.9-2,5.2c-0.6,0.6-1.2,1.1-1.9,1.5l2.8,7h0.3l2,2v0.8l-2,2H149.1z M144.8,268.2c1,0,1.6-0.4,1.8-0.7
	c0.4-0.4,0.5-1.3,0.5-2c0-0.6-0.1-1.5-0.5-1.9c-0.5-0.4-1.2-0.6-2.1-0.6h-0.5v5.1H144.8z M259.6,283.7l-1.2-1.2l-1.5,1.2h-0.8
	l-1.5-1.2l-1.2,1.2h-3.8l-2-2V281l1.5-1.5v-16.7l-1.6-1.6v-0.8l2-2h3.6l2,1.6l1.9,8.6l2-8.6l1.9-1.5h4l2,2v0.8l-1.6,1.6v16.6
	l1.6,1.6v0.8l-2,2H259.6z M234.8,283.7c-2.3,0-4.2-0.7-5.6-2c-1.4-1.4-2-3.1-2-5.2v-13.6l-1.8-1.8v-0.8l2-2h5.5l2,2v0.8l-1.8,1.8
	v13.6c0,1.5,0.3,1.9,0.3,1.9c0.3,0.2,0.8,0.4,1.6,0.4c0.8,0,1.4-0.1,1.7-0.4c0.4-0.3,0.8-0.9,0.8-2v-13.4l-1.9-1.9v-0.8l2-2h4.5l2,2
	v0.8l-1.9,1.9v13.4c0,2-0.7,3.8-2.1,5.2C238.6,283,236.8,283.7,234.8,283.7z M207.5,283.7l-2-2V281l2-2h2v-15.9h-2l-2-2v-0.8l2-2h10
	l2,2v0.8l-2,2h-2V279h2l2,2v0.8l-2,2H207.5z M192.3,283.7l-1.2-1.2l-1.5,1.2h-0.8l-1.5-1.2l-1.2,1.2h-3.8l-2-2V281l1.5-1.5v-16.8
	l-1.6-1.6v-0.8l2-2h3.6l2,1.6l1.9,8.6l2-8.6l1.9-1.5h4l2,2v0.8l-1.6,1.6v16.6l1.6,1.6v0.8l-2,2H192.3z M160.5,283.7l-2-2V281
	l1.9-1.9v-16.2l-1.8-1.8v-0.8l2-2h12.3l1.9,1.4l1.4,4.2l-1.2,2.5l-0.6,0.2l-1.8-0.7l0.6,0.6v7.4l-2,2h-0.8l-2-2v-0.5
	c0-0.6-0.1-0.8-0.1-0.9c0,0,0,0,0,0c0,0-0.1,0-0.2,0h-1.6v6.4h2.4c1,0,2.4-0.3,3.4-3.1l2.6-1.2l0.6,0.2l1.2,2.4l-1.4,4.9l-1.9,1.5
	H160.5z M168,267.8c0.2,0,0.3,0,0.3,0c0-0.1,0-0.2,0-0.5v-0.8l2-2h0.8l0.1,0.1c-0.6-0.9-1.4-1.6-2.2-1.6h-2.6v4.8H168z M272.7,273.1
	l-2-2v-1.1l2-2h13.9l2,2v1.1l-2,2H272.7z M93.4,273.1l-2-2v-1.1l2-2h13.9l2,2v1.1l-2,2H93.4z M191.1,231.5c-5.8,0-10.7-2-14.7-6
	c-4-4-6-9.4-6-16.1c0-6.7,2-12.1,6-16.1c4-4,8.9-6,14.7-6s10.7,2,14.7,6c4,4,6,9.4,6,16.1c0,6.7-2,12.1-6,16.1
	C201.8,229.4,196.9,231.5,191.1,231.5z M191.1,192.7c-2.9,0-5.4,1.1-7.6,3.2c-2.7,2.8-4.1,7.3-4.1,13.4c0,6.2,1.4,10.7,4.1,13.5
	c2.2,2.2,4.7,3.2,7.6,3.2s5.4-1.1,7.6-3.2c2.8-2.8,4.1-7.3,4.1-13.5c0-6.2-1.4-10.7-4.1-13.4C196.5,193.8,194,192.7,191.1,192.7z
	 M66,230.6l-0.9-0.2c-1.5-0.7-1.8-1.7-1.8-2.5c0-0.7,0.3-1.7,1.8-2.5l0.3-0.1c2-0.6,3.2-1.7,3.9-3.5l0,0l9.6-25.9
	c-1.5-0.3-2.1-1.1-2.3-1.8c-0.2-0.5-0.3-1.6,0.8-2.7l0.6-0.4c2.1-1,3.7-1.9,4.7-2.8l0.4-0.3c0.4-0.2,0.9-0.4,1.6-0.4
	c1.1,0,2.1,0.6,2.8,1.6l0.2,0.4l13,33.7c0.5,1.1,1.5,1.8,3.2,2.2l0.7,0.4c1.2,1,1.4,2,1.3,2.7c-0.1,0.5-0.4,1.5-1.8,2.1l-0.7,0.1
	H90.3l-0.9-0.2c-1.5-0.7-1.8-1.7-1.8-2.5c0-0.7,0.3-1.7,1.8-2.5l0.3-0.1c1.3-0.4,1.9-0.8,2.2-0.9c0-0.2-0.1-0.4-0.1-0.6l-1.7-4.8
	c-0.1-0.2-0.2-0.3-0.2-0.3l-12.8,0c-0.2,0-0.3,0-0.4,0.4c-0.6,1.4-1.2,3.2-1.9,5.3c0,0.3,0.1,0.3,0.3,0.4l0.2,0.1
	c0.4,0.2,1,0.4,1.5,0.5l0.9,0.4c1.2,1,1.4,2,1.3,2.7c-0.1,0.5-0.4,1.5-1.8,2.1l-0.7,0.1H66z M88,213.3l-4.7-12.7l-4.7,12.7L88,213.3
	z M346.4,230.5l-1-0.3c-1.3-0.8-1.6-1.7-1.6-2.4s0.3-1.6,1.6-2.4l0.7-0.3c1.4-0.2,1.4-0.7,1.4-1.2v-28.8c0-1.3-0.3-1.6-1.6-1.6
	c-1.5,0-4.2,1-8.4,5.8l-0.4,0.2l0.1,0.1c-0.6,0.4-1.2,0.7-1.7,0.7c-0.9,0-1.7-0.5-2.1-1.3c-0.2-0.4-0.3-0.9-0.3-1.4l0.1-0.6l2.5-7.4
	l1.9-1.4h28.2l1.9,1.4l2.5,7.4l0.1,0.6c0,1.9-1.2,2.7-2.4,2.7c-0.6,0-1.2-0.2-1.7-0.7l-0.3-0.3c-4.2-4.8-6.9-5.8-8.4-5.8
	c-1.3,0-1.6,0.3-1.6,1.6V224c0,0.5,0,1,1.4,1.2l0.7,0.3c1.3,0.8,1.5,1.7,1.5,2.4s-0.3,1.6-1.5,2.4l-1,0.3H346.4z M279.5,230.5
	l-1-0.3c-1.3-0.8-1.5-1.7-1.5-2.4s0.3-1.6,1.5-2.4l0.7-0.3c1.4-0.2,1.4-0.7,1.4-1.2v-29.3c0-0.5,0-1-1.4-1.2l-0.7-0.3
	c-1.3-0.8-1.5-1.7-1.5-2.4c0-0.7,0.3-1.6,1.5-2.4l1-0.3h10.6l1,0.3c1.3,0.8,1.5,1.7,1.5,2.4c0,0.7-0.3,1.6-1.5,2.4l-0.7,0.3
	c-1.4,0.2-1.4,0.7-1.4,1.2v19.5l18.1-18.1v-1.4c0-0.5,0-1-1.4-1.2l-0.7-0.3c-1.3-0.8-1.5-1.7-1.5-2.4c0-0.7,0.3-1.6,1.5-2.4l1-0.3
	h10.6l1,0.3c1.3,0.8,1.5,1.7,1.5,2.4c0,0.7-0.3,1.6-1.5,2.4l-0.7,0.3c-1.4,0.2-1.4,0.7-1.4,1.2V224c0,0.5,0,1,1.4,1.2l0.7,0.3
	c1.3,0.8,1.5,1.7,1.5,2.4c0,0.7-0.3,1.6-1.5,2.4l-1,0.3h-10.4l-0.7-0.1c-1.4-0.5-1.7-1.5-1.8-2c-0.1-0.6-0.1-1.6,1-2.6l1.1-0.6
	c1.4-0.2,1.4-0.7,1.4-1.2v-20.2L289,221.9v2.1c0,0.5,0,1,1.4,1.2l0.7,0.3c1.3,0.8,1.5,1.7,1.5,2.4s-0.3,1.6-1.5,2.4l-1,0.3H279.5z
	 M229.8,230.5l-1-0.3c-1.3-0.8-1.5-1.7-1.5-2.4s0.3-1.6,1.5-2.4l0.7-0.3c1.4-0.2,1.4-0.7,1.4-1.2v-29.3c0-0.5,0-1-1.4-1.2l-0.7-0.3
	c-1.3-0.8-1.5-1.7-1.5-2.4c0-0.7,0.3-1.6,1.5-2.4l1-0.3h16.7c5.2,0,9.2,1.4,12,4.2c2.3,2.3,3.5,5.3,3.5,8.8c0,3.8-1,6.8-3.1,8.8
	c-3.1,3.1-7.3,4.6-12.5,4.6h-7.2v9.3c0,0.5,0,1,1.4,1.2l0.7,0.3c1.3,0.8,1.5,1.7,1.5,2.4s-0.3,1.6-1.5,2.4l-1,0.3H229.8z
	 M239.3,209.4c0,0,0.2,0,0.4,0h4.7c3.1,0,5.5-0.9,7.4-2.8c1-1,1.4-2.7,1.4-5.1c0-2.5-0.6-4.3-1.9-5.6c-1.6-1.6-3.8-2.3-6.7-2.3h-3.8
	c-1.3,0-1.6,0.3-1.6,1.6V209C239.2,209.2,239.3,209.3,239.3,209.4C239.3,209.4,239.3,209.4,239.3,209.4z M123.1,230.5l-1-0.3
	c-1.3-0.8-1.5-1.7-1.5-2.4c0-0.7,0.3-1.6,1.5-2.4l0.9-0.3c1.3-0.1,1.3-0.5,1.3-1.2v-29.3c0-0.5,0-1-1.4-1.2l-0.7-0.3
	c-1.3-0.8-1.5-1.7-1.5-2.4c0-0.7,0.3-1.6,1.5-2.4l1-0.3h17.6c4.1,0,7.5,1.3,10,3.7c1.9,1.9,2.8,4.4,2.8,7.5c0,3.2-0.9,5.8-2.6,7.5
	c-0.4,0.4-0.8,0.8-1.2,1.1c1,0.6,2,1.4,3,2.3l0,0c2,2,3.1,4.8,3.1,8.2c0,3.1-1.2,5.8-3.5,8.2c-2.5,2.5-6,3.7-10.4,3.7H123.1z
	 M132.6,223.6c0,1.3,0.3,1.6,1.6,1.6h5.9c2.3,0,4.1-0.7,5.6-2.1c1-1,1.4-2.5,1.4-4.7c0-1.9-0.6-3.4-1.7-4.7c-1.2-1.4-3.3-2-6.2-2
	h-6.6L132.6,223.6z M138.7,206.3c2.2,0,3.8-0.6,5.1-1.9l0,0c1-1,1.4-2.4,1.4-4.2c0-2.1-0.5-3.7-1.4-4.7c-1.3-1.3-3.1-1.9-5.6-1.9
	h-4.1c-1.3,0-1.6,0.3-1.6,1.6v11.1L138.7,206.3z M26,230.5l-1-0.3c-1.3-0.8-1.5-1.7-1.5-2.4c0-0.7,0.3-1.6,1.5-2.4l0.6-0.2
	c1.6-0.3,1.6-0.9,1.6-1.2v-0.5c-5.9-0.1-10.5-1.8-13.6-4.9c-2.5-2.5-3.7-5.6-3.7-9.3c0-3.7,1.3-6.8,3.7-9.3
	c3.1-3.1,7.6-4.7,13.6-4.9v-0.5c0-0.5,0-1-1.4-1.2l-0.7-0.3c-1.3-0.8-1.5-1.7-1.5-2.4c0-0.7,0.3-1.6,1.5-2.4l1-0.3h10.6l1,0.3
	c1.3,0.8,1.5,1.7,1.5,2.4c0,0.7-0.3,1.6-1.5,2.4l-0.7,0.3c-1.4,0.2-1.4,0.7-1.4,1.2v0.5c6,0.1,10.5,1.8,13.6,4.9
	c2.5,2.5,3.7,5.6,3.7,9.3s-1.3,6.8-3.7,9.3c-3.1,3.1-7.7,4.7-13.6,4.9v0.5c0,0.3,0,0.9,1.6,1.2l0.6,0.2c1.3,0.8,1.5,1.7,1.5,2.4
	c0,0.7-0.3,1.6-1.5,2.4l-1,0.3H26z M35.4,218.1c2.6-0.3,4.7-1.1,6-2.5c1.6-1.6,2.3-3.6,2.3-6.2c0-2.6-0.8-4.7-2.3-6.2
	c-1.4-1.4-3.4-2.2-6-2.5V218.1z M27.1,200.7c-2.6,0.3-4.7,1.1-6,2.5c-1.6,1.6-2.3,3.6-2.3,6.2c0,2.6,0.8,4.7,2.3,6.2
	c1.4,1.4,3.4,2.2,6,2.5V200.7z M184.7,153.7c-2.4-2.8-14.7-17.6-25.9-35.3l-2.2-3.5c-15.1-23.7-22-34.6-22-54.9v-0.1
	c0-29.5,24.8-53.6,55.2-53.6h0.2c30.5,0,55.3,24.1,55.3,53.6c0,20.4-6.9,31.3-22,55l-2.2,3.4c-10.7,16.9-22.5,31.2-25.8,35.2
	l-0.1,0.2l-3.6,4.7l-1.6,0l-1.7,0L184.7,153.7z M190,24.5c-20.5,0-37.1,16.7-37.1,37.1s16.7,37.1,37.1,37.1
	c20.5,0,37.1-16.7,37.1-37.1S210.5,24.5,190,24.5z"/>
<path class="st0" d="M190.1,8.3h-0.2c-29.4,0-53.2,23.2-53.2,51.6V60c0,20.7,7.3,31.1,23.9,57.3c12.2,19.2,25.7,35,25.8,35.1
	l3.6,4.7l0.1-0.1l0.1,0.1l3.6-4.7c0.1-0.2,13.6-16,25.8-35.1c16.6-26.2,23.9-36.6,23.9-57.4C243.4,31.5,219.5,8.3,190.1,8.3z
	 M190,100.8c-21.6,0-39.1-17.5-39.1-39.1s17.5-39.1,39.1-39.1s39.1,17.5,39.1,39.1S211.6,100.8,190,100.8z M26,190.3h10.6
	c0.8,0.4,0.8,0.9,0,1.4c-2.1,0.3-3.2,1.4-3.2,3.1v1.4c0,0.8,0.4,1.1,1.1,1.1c5.9,0,10.2,1.4,13.1,4.3c2.1,2.1,3.2,4.7,3.2,7.9
	s-1,5.8-3.2,7.9c-2.8,2.9-7.2,4.3-13.1,4.3c-0.8,0-1.1,0.4-1.1,1.1v1.4c0,1.6,1,2.7,3.2,3.1c0.8,0.4,0.8,0.9,0,1.4H26
	c-0.8-0.4-0.8-0.9,0-1.4c2.1-0.4,3.1-1.5,3.1-3.1v-1.4c0-0.8-0.4-1.1-1.1-1.1c-5.9,0-10.2-1.4-13.1-4.3c-2.1-2.1-3.2-4.7-3.2-7.9
	s1.1-5.8,3.1-7.9c2.9-2.9,7.2-4.3,13.1-4.3c0.8,0,1.1-0.4,1.1-1.1v-1.4c0-1.8-1-2.9-3.1-3.1C25.2,191.2,25.2,190.7,26,190.3z
	 M29.1,220.2v-21.6c-4.2,0-7.4,1.1-9.5,3.1c-2,1.9-2.9,4.5-2.9,7.7s1,5.7,2.9,7.7C21.7,219.2,24.9,220.2,29.1,220.2z M33.4,220.2
	c4.2,0,7.4-1.1,9.5-3.1c2-1.9,2.9-4.5,2.9-7.7s-1-5.7-2.9-7.7c-2.1-2.1-5.3-3.1-9.5-3.1V220.2z M71.2,222.5l9.9-26.8
	c0.2-1.1-0.4-1.6-1.8-1.8c-0.9-0.1-1.1-0.5-0.4-1.1c2.2-1.1,4-2.1,5.2-3.1c0.3-0.1,0.5-0.2,0.7-0.2c0.4,0,0.8,0.2,1.1,0.7l13.1,33.8
	c0.8,1.7,2.2,2.8,4.5,3.4c0.8,0.6,0.8,1.1,0,1.4H90.3c-0.9-0.4-0.9-0.9,0-1.4c2.4-0.8,3.6-1.6,3.6-2.5c0-0.6-0.1-1.1-0.2-1.6
	l-1.8-4.9c-0.4-1.1-1.1-1.6-2-1.6H77c-1.1,0-1.8,0.5-2.2,1.6c-0.6,1.5-1.3,3.4-2,5.6c-0.2,1.4,0.4,2.2,1.6,2.7
	c0.6,0.3,1.3,0.5,2,0.7c0.8,0.6,0.8,1.1,0,1.4H66c-0.9-0.4-0.9-0.9,0-1.4C68.6,226.5,70.3,224.9,71.2,222.5L71.2,222.5L71.2,222.5z
	 M77,215.3h12.6c0.8,0,1.1-0.3,0.9-0.9l-6.3-17.1c-0.6-1.1-1.2-1.1-1.8,0l-6.3,17.1C76,215,76.3,215.3,77,215.3L77,215.3z
	 M151.3,211.9c1.6,1.6,2.5,3.9,2.5,6.8c0,2.6-1,4.8-2.9,6.8c-2.1,2.1-5.1,3.1-9,3.1h-18.7c-0.8-0.4-0.8-0.9,0-1.4
	c2.1-0.1,3.2-1.2,3.2-3.2v-29.3c0-1.8-1.1-2.9-3.2-3.1c-0.8-0.4-0.8-0.9,0-1.4h17.6c3.6,0,6.4,1.1,8.6,3.1c1.5,1.5,2.2,3.5,2.2,6.1
	c0,2.7-0.7,4.7-2,6.1s-2.4,2.2-3.1,2.5c-0.3,0.3-0.3,0.6,0,0.9C148,209.2,149.7,210.2,151.3,211.9L151.3,211.9L151.3,211.9z
	 M145.2,205.8c1.4-1.4,2-3.2,2-5.6c0-2.7-0.7-4.7-2-6.1c-1.7-1.6-4-2.5-7-2.5h-4.1c-2.4,0-3.6,1.2-3.6,3.6v11.7
	c0,0.9,0.4,1.4,1.4,1.4h6.8C141.4,208.3,143.6,207.5,145.2,205.8L145.2,205.8z M147,224.5c1.4-1.4,2-3.4,2-6.1
	c0-2.4-0.8-4.4-2.2-6.1c-1.6-1.8-4.2-2.7-7.7-2.7h-7.2c-0.9,0-1.4,0.4-1.4,1.4v12.6c0,2.4,1.2,3.6,3.6,3.6h5.9
	C142.9,227.2,145.2,226.3,147,224.5L147,224.5z M204.4,194.8c3.6,3.6,5.4,8.5,5.4,14.6s-1.8,11-5.4,14.6c-3.6,3.6-8,5.4-13.3,5.4
	s-9.7-1.8-13.3-5.4c-3.6-3.6-5.4-8.5-5.4-14.6s1.8-11,5.4-14.6s8-5.4,13.3-5.4S200.8,191.2,204.4,194.8z M182.1,194.5
	c-3.1,3.1-4.7,8.1-4.7,14.9s1.6,11.7,4.7,14.9c2.6,2.6,5.6,3.8,9,3.8s6.4-1.3,9-3.8c3.1-3.1,4.7-8.1,4.7-14.9s-1.6-11.7-4.7-14.9
	c-2.6-2.6-5.6-3.8-9-3.8S184.7,192,182.1,194.5z M238.4,212.8c-0.8,0-1.1,0.4-1.1,1.1V224c0,1.8,1,2.9,3.1,3.1
	c0.8,0.4,0.8,0.9,0,1.4h-10.6c-0.8-0.4-0.8-0.9,0-1.4c2.1-0.3,3.1-1.4,3.1-3.1v-29.3c0-1.8-1.1-2.9-3.1-3.1c-0.8-0.4-0.8-0.9,0-1.4
	h16.7c4.6,0,8.2,1.2,10.6,3.6c2,1.9,2.9,4.4,2.9,7.4c0,3.3-0.8,5.8-2.5,7.4c-2.7,2.7-6.4,4.1-11,4.1L238.4,212.8L238.4,212.8z
	 M244.4,211.4c3.6,0,6.5-1.1,8.8-3.4c1.4-1.4,2-3.5,2-6.5s-0.8-5.3-2.5-7c-2-1.9-4.7-2.9-8.1-2.9h-3.8c-2.4,0-3.6,1.2-3.6,3.6V209
	c0,1.6,0.8,2.5,2.5,2.5L244.4,211.4L244.4,211.4z M287,221.1v2.9c0,1.8,1,2.9,3.1,3.1c0.8,0.4,0.8,0.9,0,1.4h-10.6
	c-0.8-0.4-0.8-0.9,0-1.4c2.1-0.3,3.1-1.4,3.1-3.1v-29.3c0-1.8-1-2.9-3.1-3.1c-0.8-0.4-0.8-0.9,0-1.4h10.6c0.8,0.4,0.8,0.9,0,1.4
	c-2.1,0.3-3.1,1.4-3.1,3.1v22.1c0,1.5,0.5,1.7,1.6,0.7L309,197v-2.2c0-1.8-1-2.9-3.1-3.1c-0.8-0.4-0.8-0.9,0-1.4h10.6
	c0.8,0.4,0.8,0.9,0,1.4c-2.1,0.3-3.1,1.4-3.1,3.1V224c0,1.8,1,2.9,3.1,3.1c0.8,0.4,0.8,0.9,0,1.4h-10.4c-0.8-0.3-0.8-0.8-0.2-1.4
	c2.1-0.3,3.1-1.4,3.1-3.1v-22.8c0-1.5-0.5-1.7-1.6-0.7L287,221.1L287,221.1z M336,198.1c-0.6,0.4-0.9,0.3-0.9-0.4l2.5-7.4h28.1
	l2.5,7.4c0,0.8-0.3,0.9-0.9,0.4c-3.8-4.4-7.1-6.5-9.9-6.5c-2.4,0-3.6,1.2-3.6,3.6v28.8c0,1.8,1,2.9,3.1,3.1c0.8,0.4,0.8,0.9,0,1.4
	h-10.6c-0.8-0.4-0.8-0.9,0-1.4c2.1-0.3,3.1-1.4,3.1-3.1v-28.8c0-2.4-1.2-3.6-3.6-3.6C343.1,191.6,339.8,193.8,336,198.1L336,198.1z
	 M93.4,269.9h13.9v1.1H93.4V269.9z M119.5,271.7v8.3c0,0.7,0.4,1,1.1,1h0.9v0.8h-6V281h0.9c0.8,0,1.1-0.3,1.1-1v-17.9
	c0-0.7-0.4-1-1.1-1h-0.8v-0.8h7.4c2.2,0,3.8,0.5,5,1.6c1,1,1.5,2.3,1.5,3.9c0,1.7-0.5,3-1.5,4c-1.2,1.2-2.8,1.9-4.6,1.9L119.5,271.7
	L119.5,271.7z M122.7,270.9c1.4,0,2.5-0.4,3.4-1.2c0.9-0.8,1.4-2.1,1.4-3.8s-0.5-2.9-1.4-3.8c-0.8-0.8-2-1.1-3.6-1.1h-1.8
	c-0.8,0-1.1,0.3-1.1,1v8.9L122.7,270.9L122.7,270.9z M150.1,261.8c0.8,0.8,1.2,2,1.2,3.5c0,1.6-0.5,2.8-1.4,3.8s-2,1.5-3.1,1.8
	l3.8,9.3c0.3,0.6,0.8,0.9,1.2,0.9h0.8v0.8h-3.5l-4.1-10.8h-2.9v9c0,0.7,0.4,1,1.1,1h0.8v0.8h-5.8V281h0.8c0.8,0,1.1-0.3,1.1-1v-17.9
	c0-0.7-0.4-1-1.1-1h-0.8v-0.8h7.1C147.4,260.3,149,260.8,150.1,261.8L150.1,261.8L150.1,261.8z M142.1,270.2h2.8
	c1.3,0,2.4-0.4,3.2-1.2c0.8-0.8,1.1-1.9,1.1-3.4s-0.4-2.6-1.1-3.4c-0.8-0.8-2-1.1-3.5-1.1h-1.4c-0.8,0-1.1,0.3-1.1,1L142.1,270.2
	L142.1,270.2L142.1,270.2z M160.6,261.1v-0.8h12.3l1.4,4.2l-0.6,0.2c-1.3-2.5-2.9-3.8-4.6-3.8h-3.5c-0.8,0-1.1,0.3-1.1,1v7.8h3.6
	c1.6,0,2.4-0.8,2.4-2.5v-0.8h0.8v7.4h-0.8v-0.5c0-1.9-0.8-2.9-2.4-2.9h-3.6v9.4c0,0.7,0.4,1,1.1,1h3.2c2.4,0,4.2-1.5,5.3-4.4
	l0.6,0.2l-1.4,4.9h-12.8V281h0.8c0.8,0,1.1-0.3,1.1-1v-17.9c0-0.7-0.4-1-1.1-1H160.6L160.6,261.1z M196.1,280c0,0.7,0.4,1,1.1,1h0.5
	v0.8h-5.4V281h0.6c0.8,0,1.1-0.3,1.1-1v-16.4h-0.2l-4.2,18.1h-0.8l-3.9-17.8h-0.2v16c0,0.7,0.4,1,1.1,1h0.4v0.8h-3.8V281h0.4
	c0.8,0,1.1-0.3,1.1-1v-17.9c0-0.7-0.4-1-1.1-1h-0.5v-0.8h3.6l3.6,16.8h0.2l3.9-16.8h4v0.8h-0.5c-0.8,0-1.1,0.3-1.1,1L196.1,280
	L196.1,280L196.1,280z M207.5,261.1v-0.8h10v0.8h-2.9c-0.8,0-1.1,0.3-1.1,1V280c0,0.7,0.4,1,1.1,1h2.9v0.8h-10V281h2.9
	c0.8,0,1.1-0.3,1.1-1v-17.9c0-0.7-0.4-1-1.1-1H207.5z M232.1,279.8c0.7,0.6,1.6,0.9,2.9,0.9c1.4,0,2.5-0.3,3.1-1
	c0.9-0.8,1.4-2,1.4-3.4v-14.3c0-0.7-0.4-1-1.1-1h-0.8v-0.8h4.5v0.8h-0.8c-0.8,0-1.1,0.3-1.1,1v14.3c0,1.5-0.5,2.8-1.5,3.8
	c-1.2,1.1-2.5,1.6-4,1.6c-1.8,0-3.2-0.5-4.2-1.5c-0.9-0.9-1.4-2.2-1.4-3.8v-14.4c0-0.7-0.4-1-1.1-1h-0.6v-0.8h5.5v0.8h-0.6
	c-0.8,0-1.1,0.3-1.1,1v14.4C231.1,278.1,231.5,279.2,232.1,279.8L232.1,279.8z M263.3,279.9c0,0.7,0.4,1,1.1,1h0.5v0.8h-5.4v-0.8
	h0.6c0.8,0,1.1-0.3,1.1-1v-16.4h-0.2l-4.2,18.1h-0.8l-3.9-17.8h-0.2v16c0,0.7,0.4,1,1.1,1h0.4v0.8h-3.8V281h0.4c0.8,0,1.1-0.3,1.1-1
	v-17.9c0-0.7-0.4-1-1.1-1h-0.5v-0.8h3.6l3.6,16.8h0.2l3.9-16.8h4v0.8h-0.5c-0.8,0-1.1,0.3-1.1,1L263.3,279.9L263.3,279.9z
	 M272.7,269.9h13.9v1.1h-13.9V269.9z"/>
<path d="M207.7,71c2.5-2.5,3.7-5.6,3.7-9.3c0-3.7-1.2-6.8-3.7-9.3c-3.1-3.1-7.6-4.7-13.6-4.9V47c0-0.5,0-1,1.4-1.2l0.7-0.3
	c1.3-0.8,1.5-1.7,1.5-2.4c0-0.7-0.3-1.6-1.5-2.4l-1-0.3h-10.6l-1,0.3c-1.3,0.8-1.5,1.7-1.5,2.4c0,0.7,0.3,1.6,1.5,2.4l0.7,0.3
	c1.4,0.2,1.4,0.7,1.4,1.2v0.5c-5.9,0.1-10.5,1.8-13.6,4.9c-2.5,2.5-3.7,5.6-3.7,9.3c0,3.7,1.3,6.8,3.7,9.3c3.1,3.1,7.7,4.7,13.6,4.9
	v0.5c0,0.3,0,0.8-1.6,1.2l-0.6,0.2c-1.3,0.8-1.5,1.7-1.5,2.4c0,0.7,0.3,1.6,1.5,2.4l1,0.3h10.6l1-0.3c1.3-0.8,1.5-1.7,1.5-2.4
	c0-0.7-0.3-1.6-1.5-2.4l-0.6-0.2c-1.6-0.3-1.6-0.9-1.6-1.2v-0.5C200.1,75.7,204.7,74.1,207.7,71z M185.8,70.4
	c-2.6-0.3-4.7-1.1-6-2.5c-1.6-1.6-2.3-3.6-2.3-6.2s0.8-4.7,2.3-6.2c1.4-1.4,3.4-2.2,6-2.5V70.4z M194.1,70.4V53
	c2.7,0.3,4.7,1.1,6,2.5c1.6,1.6,2.3,3.6,2.3,6.2s-0.8,4.7-2.3,6.2C198.8,69.3,196.8,70.1,194.1,70.4z"/>
<path class="st0" d="M184.7,42.5h10.6c0.8,0.4,0.8,0.9,0,1.4c-2.1,0.3-3.2,1.4-3.2,3.1v1.4c0,0.8,0.4,1.1,1.1,1.1
	c5.9,0,10.2,1.4,13.1,4.3c2.1,2.1,3.2,4.7,3.2,7.9s-1.1,5.8-3.2,7.9c-2.8,2.9-7.2,4.3-13.1,4.3c-0.8,0-1.1,0.4-1.1,1.1v1.4
	c0,1.6,1.1,2.7,3.2,3.1c0.8,0.4,0.8,0.9,0,1.4h-10.6c-0.8-0.4-0.8-0.9,0-1.4c2.1-0.4,3.2-1.5,3.2-3.1V75c0-0.8-0.4-1.1-1.1-1.1
	c-5.9,0-10.2-1.4-13.1-4.3c-2.1-2.1-3.1-4.7-3.1-7.9s1-5.8,3.1-7.9c2.9-2.9,7.2-4.3,13.1-4.3c0.8,0,1.1-0.4,1.1-1.1V47
	c0-1.8-1.1-2.9-3.2-3.1C183.9,43.4,183.9,43,184.7,42.5z"/>
<path class="st0" d="M187.8,72.5V50.9c-4.2,0-7.4,1.1-9.5,3.1c-1.9,1.9-2.9,4.5-2.9,7.7s1,5.7,2.9,7.7
	C180.5,71.4,183.6,72.5,187.8,72.5z"/>
<path class="st0" d="M192.1,72.5c4.2,0,7.4-1.1,9.5-3.1c2-1.9,2.9-4.5,2.9-7.7s-1-5.7-2.9-7.7c-2.1-2.1-5.3-3.1-9.5-3.1V72.5z"/>
</svg>
