<?xml version="1.0" encoding="utf-8"?>
<svg viewBox="0 0 380 290" xmlns="http://www.w3.org/2000/svg">
  <defs>
    <style>
      .prefix__cls-1 {
        fill: currentColor
      }
    </style>
  </defs>
  <path class="prefix__cls-1"
    d="M193.62 75.19c23.9 1.26 23.9-28.27 0-27.02-1.58.11-1.21-1.72-1.25-2.75-.8-3.53 6.04-3.17 3.51-5.01h-11.77c-2.52 1.86 4.3 1.47 3.51 5.01-.03 1 .32 2.88-1.25 2.75-23.89-1.26-23.9 28.28 0 27.02 1.58-.11 1.21 1.72 1.25 2.76.81 3.19-6.02 3.28-3.51 5h11.77c2.5-1.75-4.31-1.8-3.51-5 .03-1.01-.32-2.89 1.25-2.76zm-6-1.5c-18.27 1.33-18.27-25.34 0-24.02v24.02zm4.75-24.02c18.27-1.32 18.28 25.34 0 24.02V49.67z" />
  <path class="prefix__cls-1"
    d="M190.11 8.28h-.23c-29.35.03-53.23 23.16-53.25 51.6V60c.02 20.73 7.26 31.14 23.87 57.32 12.16 19.16 25.69 34.98 25.82 35.14l3.62 4.74.06-.08.06.08 3.62-4.74c.12-.16 13.65-15.98 25.81-35.14 16.64-26.21 23.88-36.62 23.88-57.4 0-28.46-23.89-51.61-53.26-51.64zm-.11 92.54c-21.62 0-39.15-17.52-39.15-39.14S168.38 22.54 190 22.54s39.14 17.52 39.14 39.14-17.53 39.14-39.14 39.14zM25.95 190.27h10.59c.75.45.75.9 0 1.35-2.1.3-3.15 1.35-3.15 3.15v1.35c0 .76.37 1.13 1.13 1.13 5.86 0 10.21 1.43 13.06 4.28 2.1 2.1 3.15 4.73 3.15 7.88s-1.05 5.78-3.15 7.88c-2.85 2.85-7.21 4.28-13.06 4.28-.75 0-1.13.38-1.13 1.12v1.35c0 1.65 1.05 2.7 3.15 3.15.75.45.75.9 0 1.35H25.95c-.75-.45-.75-.9 0-1.35 2.1-.45 3.15-1.5 3.15-3.15v-1.35c0-.75-.38-1.12-1.12-1.12-5.86 0-10.21-1.43-13.06-4.28-2.11-2.1-3.15-4.73-3.15-7.88s1.05-5.78 3.15-7.88c2.85-2.85 7.21-4.28 13.06-4.28.75 0 1.12-.37 1.12-1.13v-1.35c0-1.8-1.05-2.85-3.15-3.15-.75-.45-.75-.9 0-1.35zm3.15 29.95V198.6c-4.2 0-7.36 1.05-9.46 3.15-1.95 1.95-2.93 4.5-2.93 7.66s.97 5.71 2.93 7.66c2.1 2.1 5.25 3.15 9.46 3.15zm4.28 0c4.2 0 7.36-1.05 9.46-3.15 1.95-1.95 2.93-4.51 2.93-7.66s-.98-5.7-2.93-7.66c-2.1-2.1-5.26-3.15-9.46-3.15v21.62zm37.79 2.25l9.91-26.8c.15-1.05-.45-1.65-1.8-1.8-.9-.15-1.05-.52-.45-1.13 2.25-1.05 3.98-2.1 5.18-3.15.3-.15.52-.22.68-.22.45 0 .82.22 1.13.68l13.06 33.78c.75 1.66 2.25 2.78 4.5 3.38.75.6.75 1.05 0 1.35H90.32c-.9-.45-.9-.9 0-1.35 2.4-.75 3.6-1.58 3.6-2.48 0-.6-.08-1.13-.22-1.58l-1.8-4.95c-.45-1.05-1.13-1.58-2.03-1.58H77.03c-1.06 0-1.8.52-2.25 1.58-.6 1.5-1.28 3.38-2.03 5.63-.15 1.35.37 2.25 1.58 2.71.6.3 1.28.53 2.03.68.75.6.75 1.05 0 1.35H66c-.9-.45-.9-.9 0-1.35 2.55-.75 4.28-2.33 5.18-4.73v-.02zm5.86-7.21h12.61c.75 0 1.05-.3.9-.9l-6.31-17.12c-.6-1.05-1.2-1.05-1.8 0l-6.31 17.12c-.15.6.15.9.9.9zm74.27-3.38c1.65 1.65 2.48 3.9 2.48 6.75 0 2.56-.98 4.81-2.93 6.76-2.1 2.11-5.11 3.15-9.01 3.15h-18.69c-.75-.45-.75-.9 0-1.35 2.1-.15 3.15-1.2 3.15-3.16v-29.28c0-1.8-1.05-2.85-3.15-3.15-.75-.45-.75-.9 0-1.35h17.57c3.6 0 6.45 1.06 8.56 3.15 1.5 1.51 2.25 3.53 2.25 6.08 0 2.71-.68 4.73-2.03 6.08s-2.4 2.18-3.15 2.48c-.3.3-.3.6 0 .9 1.65.3 3.3 1.28 4.96 2.93h-.01zm-6.08-6.07c1.35-1.35 2.03-3.23 2.03-5.63 0-2.7-.68-4.73-2.03-6.08-1.66-1.65-3.98-2.48-6.98-2.48h-4.05c-2.4 0-3.6 1.2-3.6 3.61v11.71c0 .9.45 1.35 1.35 1.35h6.76c2.7 0 4.88-.83 6.53-2.48zm1.8 18.69c1.35-1.35 2.03-3.38 2.03-6.08 0-2.4-.75-4.42-2.25-6.08-1.65-1.8-4.21-2.7-7.66-2.7h-7.21c-.9 0-1.35.45-1.35 1.35v12.61c0 2.4 1.2 3.61 3.6 3.61h5.86c2.85 0 5.18-.91 6.98-2.71zm57.39-29.73c3.6 3.6 5.41 8.49 5.41 14.64s-1.8 11.04-5.41 14.64c-3.6 3.6-8.03 5.41-13.29 5.41s-9.69-1.8-13.29-5.41c-3.6-3.6-5.41-8.48-5.41-14.64s1.8-11.03 5.41-14.64 8.03-5.41 13.29-5.41 9.68 1.8 13.29 5.41zm-22.3-.23c-3.15 3.15-4.73 8.11-4.73 14.86s1.57 11.71 4.73 14.87c2.55 2.55 5.55 3.83 9.01 3.83s6.45-1.27 9.01-3.83c3.15-3.15 4.73-8.11 4.73-14.87s-1.58-11.71-4.73-14.86c-2.55-2.55-5.56-3.83-9.01-3.83s-6.46 1.28-9.01 3.83zm56.26 18.25c-.75 0-1.12.38-1.12 1.12v10.14c0 1.8 1.04 2.85 3.15 3.15.75.45.75.9 0 1.35h-10.59c-.75-.45-.75-.9 0-1.35 2.1-.3 3.15-1.35 3.15-3.15v-29.28c0-1.8-1.05-2.85-3.15-3.15-.75-.45-.75-.9 0-1.35h16.67c4.65 0 8.18 1.2 10.58 3.6 1.95 1.95 2.93 4.43 2.93 7.43 0 3.3-.83 5.78-2.48 7.43-2.7 2.7-6.38 4.06-11.04 4.06h-8.11zm6.08-1.36c3.61 0 6.53-1.12 8.78-3.38 1.35-1.35 2.03-3.53 2.03-6.54s-.82-5.33-2.48-6.98c-1.96-1.95-4.66-2.93-8.11-2.93h-3.83c-2.4 0-3.6 1.2-3.6 3.61v13.74c0 1.65.82 2.48 2.48 2.48h4.73zm42.52 9.69v2.93c0 1.8 1.05 2.85 3.15 3.15.75.45.75.9 0 1.35h-10.58c-.75-.45-.75-.9 0-1.35 2.1-.3 3.15-1.35 3.15-3.15v-29.28c0-1.8-1.05-2.85-3.15-3.15-.75-.45-.75-.9 0-1.35h10.58c.75.45.75.9 0 1.35-2.1.3-3.15 1.35-3.15 3.15v22.07c0 1.51.52 1.73 1.58.67l20.5-20.5v-2.25c0-1.8-1.05-2.85-3.15-3.15-.75-.45-.75-.9 0-1.35h10.58c.75.45.75.9 0 1.35-2.11.3-3.15 1.35-3.15 3.15v29.28c0 1.8 1.04 2.85 3.15 3.15.75.45.75.9 0 1.35h-10.36c-.75-.3-.83-.75-.22-1.35 2.1-.3 3.15-1.35 3.15-3.15v-22.75c0-1.5-.53-1.72-1.58-.67l-20.5 20.49zm49.05-22.97c-.6.45-.9.3-.9-.45l2.48-7.43h28.15l2.48 7.43c0 .75-.3.9-.9.45-3.75-4.35-7.06-6.53-9.91-6.53-2.4 0-3.6 1.21-3.6 3.6v28.83c0 1.8 1.05 2.85 3.15 3.15.75.45.75.9 0 1.35h-10.58c-.76-.45-.76-.9 0-1.35 2.1-.3 3.15-1.35 3.15-3.15v-28.83c0-2.4-1.2-3.6-3.6-3.6-2.85 0-6.16 2.18-9.91 6.53h-.01zM93.36 269.94h13.89v1.12H93.36v-1.12zm26.18 1.77v8.26c0 .67.38 1 1.13 1h.88v.75h-6.01v-.75h.88c.75 0 1.13-.33 1.13-1v-17.9c0-.67-.37-1-1.13-1h-.75v-.75h7.38c2.17 0 3.84.54 5.01 1.62 1 1 1.5 2.3 1.5 3.88 0 1.67-.5 3-1.5 4.01-1.25 1.25-2.8 1.88-4.63 1.88h-3.89zm3.13-.77c1.42 0 2.54-.42 3.38-1.25.91-.84 1.38-2.08 1.38-3.76s-.46-2.92-1.38-3.75c-.75-.75-1.96-1.12-3.63-1.12h-1.75c-.75 0-1.13.33-1.13 1v8.89h3.13zm27.42-9.13c.83.83 1.25 2 1.25 3.5 0 1.58-.46 2.84-1.38 3.76s-1.96 1.5-3.13 1.75l3.75 9.26c.33.59.75.88 1.25.88h.75v.75h-3.5l-4.13-10.76h-2.88v9.01c0 .67.38 1 1.13 1h.75v.75h-5.75v-.75h.75c.75 0 1.13-.33 1.13-1v-17.89c0-.67-.38-1-1.13-1h-.75v-.75h7.13c2.08 0 3.67.5 4.75 1.5h.01zm-8 8.38h2.75c1.33 0 2.42-.42 3.25-1.25.75-.75 1.13-1.88 1.13-3.38s-.38-2.63-1.13-3.38c-.83-.75-2-1.13-3.5-1.13h-1.38c-.75 0-1.13.34-1.13 1v8.13h.01zm18.54-9.13v-.75h12.26l1.38 4.25-.63.25c-1.33-2.5-2.88-3.75-4.63-3.75h-3.5c-.75 0-1.13.33-1.13 1v7.76h3.63c1.58 0 2.37-.83 2.37-2.5v-.75h.75v7.38h-.75v-.5c0-1.92-.79-2.88-2.37-2.88h-3.63v9.38c0 .67.38 1 1.13 1h3.25c2.42 0 4.17-1.46 5.26-4.38l.62.25-1.37 4.88h-12.76v-.75h.75c.75 0 1.13-.33 1.13-1v-17.89c0-.67-.38-1-1.13-1h-.63zm35.43 18.89c0 .67.38 1 1.13 1h.5v.75h-5.38v-.75h.62c.75 0 1.13-.33 1.13-1v-16.39h-.25l-4.25 18.14h-.75l-3.88-17.77h-.25v16.02c0 .67.37 1 1.12 1h.38v.75h-3.75v-.75h.38c.75 0 1.12-.33 1.12-1v-17.89c0-.67-.37-1-1.12-1h-.5v-.75h3.63l3.63 16.77h.25l3.88-16.77h4v.75h-.5c-.75 0-1.13.33-1.13 1v17.89h-.01zm11.41-18.89v-.75h10.01v.75h-2.87c-.75 0-1.13.33-1.13 1v17.89c0 .67.38 1 1.13 1h2.87v.75h-10.01v-.75h2.88c.75 0 1.12-.33 1.12-1v-17.89c0-.67-.38-1-1.12-1h-2.88zm24.68 18.77c.67.58 1.63.88 2.88.88 1.42 0 2.46-.33 3.13-1 .91-.83 1.38-1.96 1.38-3.38v-14.27c0-.67-.37-1-1.13-1h-.75v-.75h4.5v.75h-.75c-.75 0-1.13.33-1.13 1v14.27c0 1.5-.5 2.75-1.5 3.75-1.17 1.08-2.5 1.62-4 1.62-1.75 0-3.17-.5-4.25-1.5-.92-.92-1.38-2.17-1.38-3.75v-14.39c0-.67-.37-1-1.13-1h-.63v-.75h5.51v.75h-.63c-.75 0-1.12.33-1.12 1v14.39c0 1.67.33 2.8 1 3.38zm31.18.12c0 .67.38 1 1.13 1h.5v.75h-5.38v-.75h.62c.75 0 1.12-.33 1.12-1v-16.39h-.25l-4.25 18.14h-.75l-3.88-17.77h-.25v16.02c0 .67.38 1 1.13 1h.37v.75h-3.76v-.75h.38c.75 0 1.13-.33 1.13-1v-17.89c0-.67-.38-1-1.13-1h-.5v-.75h3.63l3.63 16.77h.25l3.88-16.77h4v.75h-.5c-.75 0-1.13.33-1.13 1v17.89zm9.41-10.01h13.89v1.12h-13.89v-1.12z" />
</svg>