<?xml version="1.0" encoding="utf-8"?>
<!-- Generator: Adobe Illustrator 28.1.0, SVG Export Plug-In . SVG Version: 6.00 Build 0)  -->
<svg version="1.1" id="b" xmlns="http://www.w3.org/2000/svg" xmlns:xlink="http://www.w3.org/1999/xlink" x="0px" y="0px"
	 viewBox="0 0 150 150" style="enable-background:new 0 0 150 150;" xml:space="preserve">
<style type="text/css">
	.st0{clip-path:url(#SVGID_00000173854704224039679210000002400156038861718198_);}
	.st1{fill:url(#SVGID_00000014623091469737641670000007050135350946891949_);}
	.st2{fill:#2B2B2B;}
	
		.st3{clip-path:url(#SVGID_00000108278439622546114630000003579630737089534592_);fill:url(#SVGID_00000176011357661694897610000002390626972920269483_);}
	.st4{display:none;fill:#F0D18F;}
</style>
<g id="c">
	<g>
		<defs>
			<path id="SVGID_1_" d="M73.38,0h-0.06c-29.78,0-54,23.34-54,52.01c0,20.93,7.33,31.41,24.18,57.81
				c12.32,19.3,26.02,35.23,26.15,35.4l3.67,4.77l0.06-0.08l0.06,0.08l3.67-4.77c0.12-0.16,13.83-16.1,26.16-35.4
				c16.85-26.4,24.18-36.88,24.18-57.81C127.44,23.34,103.22,0,73.44,0H73.38z"/>
		</defs>
		<clipPath id="SVGID_00000041271163634805096030000005273204952026777786_">
			<use xlink:href="#SVGID_1_"  style="overflow:visible;"/>
		</clipPath>
		<g style="clip-path:url(#SVGID_00000041271163634805096030000005273204952026777786_);">
			
				<linearGradient id="SVGID_00000049195424926832585040000000519925945696756663_" gradientUnits="userSpaceOnUse" x1="-1018.4852" y1="573.6923" x2="-1017.0157" y2="573.6923" gradientTransform="matrix(6.250597e-15 102.08 102.08 -6.250597e-15 -58489.1328 103968.9609)">
				<stop  offset="0" style="stop-color:#DEBF6B"/>
				<stop  offset="1" style="stop-color:#D9925B"/>
			</linearGradient>
			<rect x="19.32" style="fill:url(#SVGID_00000049195424926832585040000000519925945696756663_);" width="108.12" height="150"/>
		</g>
	</g>
	<path class="st2" d="M115.02,53.79c0,22.87-18.65,41.39-41.64,41.39S31.75,76.64,31.75,53.79s18.64-41.4,41.63-41.4
		s41.64,18.53,41.64,41.39"/>
	<g>
		<defs>
			<path id="SVGID_00000063597765921921468380000000475144760659690673_" d="M66.17,80.8c-0.2,0-0.39-0.05-0.56-0.15
				c-0.86-0.51-1.3-1.14-1.3-1.86c0-0.72,0.44-1.35,1.3-1.86c0.1-0.06,0.22-0.11,0.34-0.13c3.04-0.64,3.43-2.05,3.43-3.2v-1.83
				c0-0.24-0.04-0.35-0.06-0.37c-0.02-0.01-0.13-0.06-0.38-0.06c-8.25,0-14.5-2.05-18.56-6.1c-3.06-3.05-4.62-6.9-4.62-11.45
				c0-4.56,1.55-8.41,4.62-11.45c4.08-4.06,10.33-6.11,18.56-6.11c0.25,0,0.36-0.05,0.38-0.06c0.01-0.02,0.06-0.13,0.06-0.36v-1.83
				c0-1.26-0.38-2.75-3.36-3.18c-0.14-0.02-0.28-0.07-0.41-0.14c-0.86-0.51-1.3-1.14-1.3-1.86c0-0.72,0.44-1.35,1.3-1.86
				c0.17-0.1,0.36-0.15,0.56-0.15h14.41c0.2,0,0.39,0.05,0.56,0.15c0.86,0.51,1.3,1.14,1.3,1.86c0,0.72-0.44,1.35-1.3,1.86
				c-0.12,0.07-0.26,0.12-0.41,0.14c-2.97,0.43-3.35,1.86-3.35,3.18v1.83c0,0.24,0.04,0.35,0.06,0.36c0.02,0.01,0.13,0.06,0.38,0.06
				c8.24,0,14.49,2.06,18.58,6.12c3.07,3.07,4.62,6.92,4.62,11.45c0,4.55-1.55,8.4-4.62,11.45c-4.08,4.05-10.33,6.1-18.58,6.1
				c-0.29,0-0.37,0.06-0.38,0.06c0,0-0.06,0.08-0.06,0.36v1.83c0,1.06,0.35,2.55,3.42,3.2c0.12,0.03,0.23,0.07,0.34,0.13
				c0.86,0.51,1.3,1.14,1.3,1.86c0,0.72-0.44,1.34-1.3,1.86c-0.17,0.1-0.36,0.15-0.56,0.15H66.17z M69.36,40.28
				c-4.86,0.17-8.56,1.49-11.01,3.93c-2.46,2.45-3.66,5.59-3.66,9.59c0,4.02,1.2,7.15,3.66,9.59c2.45,2.44,6.15,3.76,11.01,3.93
				V40.28z M77.39,67.31c4.86-0.17,8.56-1.49,11.01-3.93c2.43-2.43,3.66-5.65,3.66-9.59c0-3.95-1.23-7.17-3.66-9.59
				c-2.45-2.44-6.15-3.76-11.01-3.93V67.31z"/>
		</defs>
		<clipPath id="SVGID_00000026159542567734349050000005408709225157009805_">
			<use xlink:href="#SVGID_00000063597765921921468380000000475144760659690673_"  style="overflow:visible;"/>
		</clipPath>
		
			<linearGradient id="SVGID_00000011019835006364406610000008083803447927628988_" gradientUnits="userSpaceOnUse" x1="-1018.4852" y1="573.6923" x2="-1017.0157" y2="573.6923" gradientTransform="matrix(6.250597e-15 102.08 102.08 -6.250597e-15 -58489.1328 103968.9609)">
			<stop  offset="0" style="stop-color:#DEBF6B"/>
			<stop  offset="1" style="stop-color:#D9925B"/>
		</linearGradient>
		
			<rect x="19.32" style="clip-path:url(#SVGID_00000026159542567734349050000005408709225157009805_);fill:url(#SVGID_00000011019835006364406610000008083803447927628988_);" width="108.12" height="150"/>
	</g>
	<path class="st4" d="M66.5,29.05h13.76c0.97,0.58,0.97,1.17,0,1.74c-2.74,0.39-4.1,1.74-4.1,4.08v1.74c0,0.98,0.5,1.46,1.47,1.46
		c7.61,0,13.28,1.85,16.99,5.53c2.73,2.73,4.1,6.11,4.1,10.19s-1.37,7.47-4.1,10.19c-3.71,3.68-9.37,5.52-16.99,5.52
		c-0.97,0-1.47,0.49-1.47,1.46v1.74c0,2.14,1.36,3.5,4.1,4.08c0.97,0.58,0.97,1.17,0,1.74H66.5c-0.97-0.58-0.97-1.17,0-1.74
		c2.74-0.58,4.11-1.93,4.11-4.08v-1.74c0-0.98-0.5-1.46-1.47-1.46c-7.61,0-13.28-1.84-16.98-5.52c-2.74-2.73-4.1-6.12-4.1-10.19
		s1.36-7.47,4.1-10.19c3.71-3.68,9.37-5.53,16.98-5.53c0.97,0,1.47-0.47,1.47-1.46v-1.74c0-2.32-1.37-3.68-4.11-4.08
		C65.53,30.22,65.53,29.63,66.5,29.05 M70.6,67.77V39.83c-5.46,0-9.57,1.36-12.3,4.08c-2.54,2.53-3.8,5.82-3.8,9.9
		s1.26,7.38,3.8,9.9c2.73,2.71,6.84,4.08,12.3,4.08 M76.16,67.77c5.46,0,9.57-1.36,12.3-4.08c2.53-2.53,3.8-5.83,3.8-9.9
		s-1.27-7.38-3.8-9.9c-2.74-2.73-6.84-4.08-12.3-4.08v27.94V67.77z"/>
</g>
</svg>
