<?xml version="1.0" encoding="UTF-8"?><svg id="b" xmlns="http://www.w3.org/2000/svg" xmlns:xlink="http://www.w3.org/1999/xlink" viewBox="0 0 79.31 78.85"><defs><style>.cls-1{clip-path:url(#clippath);}.cls-2{fill:none;}.cls-2,.cls-3,.cls-4{stroke-width:0px;}.cls-3{fill:url(#linear-gradient);}.cls-4{fill:#2b2b2b;}</style><clipPath id="clippath"><path class="cls-2" d="M79.31,39.43c0,21.78-17.76,39.42-39.66,39.42S0,61.2,0,39.43,17.76,0,39.65,0s39.66,17.65,39.66,39.42"/></clipPath><linearGradient id="linear-gradient" x1="-1053.27" y1="537.69" x2="-1051.8" y2="537.69" gradientTransform="translate(-54849.25 107505.76) rotate(90) scale(102.08 -102.08)" gradientUnits="userSpaceOnUse"><stop offset="0" stop-color="#debf6b"/><stop offset="1" stop-color="#d9925b"/></linearGradient></defs><g class="cls-1"><rect class="cls-3" x="-16.26" y="-14.36" width="108.12" height="150"/></g><path class="cls-4" d="M43.18,54.65s.11-.06.32-.06c7.32,0,12.43-1.67,16.04-5.27,2.72-2.71,3.99-5.85,3.99-9.89s-1.33-7.25-3.99-9.89c-3.53-3.51-8.93-5.28-16.04-5.28-.23,0-.31-.05-.32-.05,0,0-.05-.08-.05-.31v-1.58c0-1.08.33-2.37,2.88-2.74.13-.02.24-.06.36-.12.75-.45,1.13-1,1.13-1.62s-.38-1.17-1.13-1.62c-.15-.08-.32-.13-.49-.13h-12.44c-.17,0-.34.05-.49.13-.75.45-1.13,1-1.13,1.62s.38,1.17,1.13,1.62c.11.07.23.1.36.12,2.56.36,2.89,1.64,2.89,2.74v1.58c0,.31-.08.36-.37.36-7.12,0-12.5,1.78-16.03,5.28-2.64,2.62-3.99,5.95-3.99,9.89s1.33,7.26,3.99,9.89c3.51,3.5,8.9,5.27,16.03,5.27.23,0,.31.05.32.05,0,0,.05.08.05.31v1.58c0,.99-.34,2.19-2.95,2.74-.1.02-.21.06-.29.11-.75.45-1.13,1-1.13,1.62s.38,1.17,1.13,1.61c.15.09.32.14.49.14h12.44c.17,0,.34-.05.49-.14.75-.44,1.13-.99,1.13-1.61s-.38-1.17-1.13-1.62c-.09-.06-.19-.09-.29-.11-2.6-.55-2.94-1.75-2.94-2.74v-1.58c0-.2.04-.29.05-.3ZM43.13,27.77c4.19.15,7.38,1.28,9.48,3.38,2.1,2.09,3.16,4.87,3.16,8.27s-1.06,6.18-3.16,8.27-5.29,3.24-9.48,3.38v-23.31ZM36.18,51.08c-4.19-.14-7.38-1.28-9.48-3.38-2.12-2.11-3.16-4.81-3.16-8.27s1.03-6.17,3.16-8.27c2.11-2.11,5.29-3.23,9.48-3.38v23.31Z"/></svg>