<?xml version="1.0" encoding="utf-8"?>
<!-- Generator: Adobe Illustrator 28.1.0, SVG Export Plug-In . SVG Version: 6.00 Build 0)  -->
<svg version="1.1" id="b" xmlns="http://www.w3.org/2000/svg" xmlns:xlink="http://www.w3.org/1999/xlink" x="0px" y="0px"
	 viewBox="0 0 150 150" style="enable-background:new 0 0 150 150;" xml:space="preserve">
<style type="text/css">
	.st0{clip-path:url(#SVGID_00000041974949097393229290000007482611693071830433_);}
	.st1{fill:url(#SVGID_00000129925023399256568210000015270180086157334974_);}
	.st2{fill:#383838;}
	
		.st3{clip-path:url(#SVGID_00000103971169225181050200000013213924641182961842_);fill:url(#SVGID_00000050637361297139359190000005771749312820830654_);}
	.st4{display:none;fill:#F0D18F;}
</style>
<g id="c">
	<g>
		<g>
			<g>
				<defs>
					<path id="SVGID_1_" d="M73.4,0L73.4,0C42.9,0,18.2,23.3,18.2,52c0,20.9,7.5,31.4,24.7,57.8c12.6,19.3,26.5,35.2,26.7,35.4
						l3.7,4.8l0.1-0.1l0.1,0.1l3.7-4.8c0.1-0.2,14.1-16.1,26.7-35.4c17.2-26.4,24.7-36.9,24.7-57.8C128.5,23.3,103.8,0,73.4,0
						L73.4,0z"/>
				</defs>
				<clipPath id="SVGID_00000074421054203094500380000015758360214515143347_">
					<use xlink:href="#SVGID_1_"  style="overflow:visible;"/>
				</clipPath>
				<g style="clip-path:url(#SVGID_00000074421054203094500380000015758360214515143347_);">
					
						<linearGradient id="SVGID_00000147919379519857474970000004502761292243487124_" gradientUnits="userSpaceOnUse" x1="-1190.7806" y1="-249.3969" x2="-1189.3113" y2="-249.3969" gradientTransform="matrix(6.250597e-15 102.08 -102.08 6.250597e-15 -25385.0527 121556.8828)">
						<stop  offset="0" style="stop-color:#DEBF6B"/>
						<stop  offset="1" style="stop-color:#D9925B"/>
					</linearGradient>
					<rect x="18.2" style="fill:url(#SVGID_00000147919379519857474970000004502761292243487124_);" width="110.3" height="150"/>
				</g>
			</g>
		</g>
		<path class="st2" d="M115.9,53.8c0,22.9-19,41.4-42.5,41.4S30.9,76.6,30.9,53.8s19-41.4,42.5-41.4S115.9,30.9,115.9,53.8"/>
		<g>
			<g>
				<defs>
					<path id="SVGID_00000004520439661057257370000005319472860078339976_" d="M66,80.8c-0.2,0-0.4-0.1-0.6-0.2
						c-0.9-0.5-1.3-1.1-1.3-1.9s0.4-1.3,1.3-1.9c0.1-0.1,0.2-0.1,0.3-0.1c3.1-0.6,3.5-2.1,3.5-3.2v-1.8c0-0.2,0-0.3-0.1-0.4
						c0,0-0.1-0.1-0.4-0.1c-8.4,0-14.8-2.1-18.9-6.1c-3.1-3-4.7-6.9-4.7-11.5c0-4.6,1.6-8.4,4.7-11.5c4.2-4.1,10.5-6.1,18.9-6.1
						c0.3,0,0.4,0,0.4-0.1c0,0,0.1-0.1,0.1-0.4V34c0-1.3-0.4-2.8-3.4-3.2c-0.1,0-0.3-0.1-0.4-0.1c-0.9-0.5-1.3-1.1-1.3-1.9
						c0-0.7,0.4-1.4,1.3-1.9c0.2-0.1,0.4-0.1,0.6-0.1h14.7c0.2,0,0.4,0,0.6,0.1c0.9,0.5,1.3,1.1,1.3,1.9c0,0.7-0.4,1.4-1.3,1.9
						c-0.1,0.1-0.3,0.1-0.4,0.1c-3,0.4-3.4,1.9-3.4,3.2v1.8c0,0.2,0,0.3,0.1,0.4c0,0,0.1,0.1,0.4,0.1c8.4,0,14.8,2.1,19,6.1
						c3.1,3.1,4.7,6.9,4.7,11.5c0,4.5-1.6,8.4-4.7,11.4c-4.2,4.1-10.5,6.1-19,6.1c-0.3,0-0.4,0.1-0.4,0.1c0,0-0.1,0.1-0.1,0.4v1.8
						c0,1.1,0.4,2.6,3.5,3.2c0.1,0,0.2,0.1,0.3,0.1c0.9,0.5,1.3,1.1,1.3,1.9s-0.4,1.3-1.3,1.9c-0.2,0.1-0.4,0.2-0.6,0.2
						C80.7,80.8,66,80.8,66,80.8z M69.3,40.3c-5,0.2-8.7,1.5-11.2,3.9c-2.5,2.5-3.7,5.6-3.7,9.6c0,4,1.2,7.2,3.7,9.6
						c2.5,2.4,6.3,3.8,11.2,3.9V40.3z M77.5,67.3c5-0.2,8.7-1.5,11.2-3.9c2.5-2.4,3.7-5.7,3.7-9.6c0-4-1.3-7.2-3.7-9.6
						c-2.5-2.4-6.3-3.8-11.2-3.9V67.3z"/>
				</defs>
				<clipPath id="SVGID_00000132782936147753183790000013918695906986971530_">
					<use xlink:href="#SVGID_00000004520439661057257370000005319472860078339976_"  style="overflow:visible;"/>
				</clipPath>
				
					<linearGradient id="SVGID_00000083060584552277466870000015499103602721606568_" gradientUnits="userSpaceOnUse" x1="-1190.7806" y1="-249.3969" x2="-1189.3113" y2="-249.3969" gradientTransform="matrix(6.250597e-15 102.08 -102.08 6.250597e-15 -25385.0527 121556.8828)">
					<stop  offset="0" style="stop-color:#DEBF6B"/>
					<stop  offset="1" style="stop-color:#D9925B"/>
				</linearGradient>
				
					<rect x="18.2" style="clip-path:url(#SVGID_00000132782936147753183790000013918695906986971530_);fill:url(#SVGID_00000083060584552277466870000015499103602721606568_);" width="110.3" height="150"/>
			</g>
		</g>
	</g>
	<path class="st4" d="M66.4,29h14c1,0.6,1,1.2,0,1.7c-2.8,0.4-4.2,1.7-4.2,4.1v1.7c0,1,0.5,1.5,1.5,1.5c7.8,0,13.5,1.8,17.3,5.5
		c2.8,2.7,4.2,6.1,4.2,10.2S97.8,61.3,95,64c-3.8,3.7-9.6,5.5-17.3,5.5c-1,0-1.5,0.5-1.5,1.5v1.7c0,2.1,1.4,3.5,4.2,4.1
		c1,0.6,1,1.2,0,1.7h-14c-1-0.6-1-1.2,0-1.7c2.8-0.6,4.2-1.9,4.2-4.1V71c0-1-0.5-1.5-1.5-1.5c-7.8,0-13.5-1.8-17.3-5.5
		c-2.8-2.7-4.2-6.1-4.2-10.2s1.4-7.5,4.2-10.2c3.8-3.7,9.6-5.5,17.3-5.5c1,0,1.5-0.5,1.5-1.5v-1.7c0-2.3-1.4-3.7-4.2-4.1
		C65.4,30.2,65.4,29.6,66.4,29 M70.5,67.8V39.8c-5.6,0-9.8,1.4-12.5,4.1c-2.6,2.5-3.9,5.8-3.9,9.9s1.3,7.4,3.9,9.9
		C60.8,66.4,65,67.8,70.5,67.8 M76.2,67.8c5.6,0,9.8-1.4,12.5-4.1c2.6-2.5,3.9-5.8,3.9-9.9s-1.3-7.4-3.9-9.9
		c-2.8-2.7-7-4.1-12.5-4.1V67.8L76.2,67.8z"/>
</g>
</svg>
