<?xml version="1.0" encoding="UTF-8"?><svg id="Layer_1_copy" xmlns="http://www.w3.org/2000/svg" viewBox="0 0 380 290"><defs><style>.cls-1{fill:#fff;stroke-width:0px;}</style></defs><g id="Layer_1"><path class="cls-1" d="M214.52,61.7c0-8.1-6.47-16.3-18.85-16.54.21-.1.44-.2.61-.28,1.1-.5,2.95-1.33,3.16-3.43.08-.76-.05-2.24-1.79-3.48-.51-.37-1.12-.57-1.75-.57h-11.8c-.66,0-1.29.21-1.82.61-1.61,1.23-1.82,2.6-1.71,3.53.24,2.1,2.09,2.91,3.19,3.4.15.06.33.14.5.23-5.57.12-10.3,1.85-13.72,5.02-3.27,3.03-5.06,7.12-5.06,11.51,0,8.06,6.41,16.22,18.68,16.53-.17.09-.33.17-.47.24-1.19.58-2.99,1.47-3.14,3.59-.05.77.12,2.23,1.86,3.42.5.34,1.09.52,1.69.52h11.8c.63,0,1.24-.2,1.75-.57,1.72-1.23,1.86-2.7,1.79-3.46-.18-2.12-1.99-2.99-3.18-3.56-.1-.06-.23-.12-.36-.18,12.23-.34,18.62-8.48,18.62-16.53ZM187.6,73.7c-18.3,1.3-18.3-25.3,0-24v24ZM192.4,73.7v-24c18.3-1.3,18.3,25.3,0,24Z"/><path class="cls-1" d="M193.6,75.2c23.9,1.3,23.9-28.3,0-27-1.6.1-1.2-1.7-1.2-2.8-.8-3.5,6-3.2,3.5-5h-11.8c-2.5,1.9,4.3,1.5,3.5,5,0,1,.3,2.9-1.2,2.8-23.9-1.3-23.9,28.3,0,27,1.6-.1,1.2,1.7,1.2,2.8.8,3.2-6,3.3-3.5,5h11.8c2.5-1.8-4.3-1.8-3.5-5,0-1.1-.4-2.9,1.2-2.8ZM187.6,73.7c-18.3,1.3-18.3-25.3,0-24v24ZM192.4,49.7c18.3-1.3,18.3,25.3,0,24v-24Z"/><path class="cls-1" d="M189.799,160.093c-.861-.058-1.656-.483-2.181-1.169l-3.6-4.699h.002c-1.919-2.249-14.396-17.128-25.953-35.316l-2.434-3.836c-15.061-23.717-21.934-34.541-21.934-55.073v-.1c0-30.106,25.211-54.6,56.2-54.6h.2c30.994,0,56.294,24.489,56.4,54.589,0,20.642-6.877,31.472-21.945,55.201l-2.421,3.815c-4.954,7.757-13.384,20.063-25.44,34.691-.236.287-.5.612-.512.628l-3.6,4.699c-.525.686-1.319,1.111-2.181,1.169-.067.005-.134.007-.201.007h-.2c-.066,0-.134-.002-.201-.007ZM189.9,25.6c-19.906,0-36.1,16.194-36.1,36.1s16.239,36.1,36.2,36.1c19.851,0,36-16.194,36-36.1s-16.194-36.1-36.1-36.1Z"/><path class="cls-1" d="M190.1,8.3h-.2c-29.4,0-53.2,23.2-53.2,51.6v.1c0,20.7,7.3,31.1,23.9,57.3,12.2,19.2,25.7,35,25.8,35.1l3.6,4.7.1-.1.1.1,3.6-4.7c.1-.2,13.6-16,25.8-35.1,16.6-26.2,23.9-36.6,23.9-57.4-.1-28.4-24-51.6-53.4-51.6h0ZM190,100.8c-21.6,0-39.2-17.5-39.2-39.1s17.5-39.1,39.1-39.1,39.1,17.5,39.1,39.1-17.4,39.1-39,39.1h0Z"/><path class="cls-1" d="M191.1,232.4c-6.065,0-11.254-2.112-15.421-6.279-4.167-4.166-6.279-9.792-6.279-16.721s2.112-12.555,6.278-16.722c4.167-4.166,9.355-6.278,15.421-6.278s11.255,2.112,15.422,6.277c4.166,4.168,6.278,9.794,6.278,16.723s-2.112,12.555-6.278,16.721c-4.168,4.167-9.356,6.279-15.422,6.279ZM191.1,193.7c-2.583,0-4.847.969-6.92,2.962-2.494,2.495-3.779,6.794-3.779,12.738,0,5.861,1.297,10.172,3.855,12.812,1.959,1.959,4.145,2.887,6.845,2.887,2.584,0,4.848-.969,6.921-2.962,2.493-2.494,3.779-6.793,3.779-12.737,0-5.862-1.297-10.173-3.854-12.812-1.96-1.96-4.146-2.888-6.846-2.888ZM90.3,231.8c-.419,0-.834-.088-1.217-.258-2.126-.943-2.425-2.59-2.455-3.253-.038-.831.201-2.393,2.214-3.511.162-.09.332-.165.508-.224.653-.218,1.106-.403,1.414-.547l-1.546-4.208h-11.746c-.543,1.375-1.063,2.816-1.551,4.299.345.144.812.276,1.301.417.352.101.684.265.976.483,1.805,1.353,1.882,2.896,1.767,3.697-.09.626-.514,2.164-2.514,2.913-.336.126-.693.19-1.052.19h-10.4c-.419,0-.834-.088-1.217-.258-2.126-.943-2.425-2.59-2.455-3.253-.038-.831.201-2.393,2.214-3.511.152-.085.311-.156.475-.213,1.751-.606,2.792-1.568,3.373-3.119l9.199-24.901c-1.321-.561-1.806-1.631-1.964-2.146-.201-.652-.475-2.335,1.32-3.876.187-.16.393-.297.613-.407,1.577-.788,3.527-1.81,4.621-2.721.286-.238.613-.421.966-.539l.14-.05c.312-.115.835-.307,1.515-.307,1.512,0,2.851.786,3.673,2.157.088.146.163.3.225.459l13.057,33.688c.315.631.863,1.265,2.504,1.693.376.098.73.269,1.042.502,1.804,1.353,1.881,2.896,1.766,3.696-.09.626-.514,2.164-2.512,2.913-.337.126-.694.19-1.053.19h-13.2ZM86.53,212.3l-3.23-8.766-3.229,8.766h6.459ZM25.9,231.7c-.466,0-.926-.108-1.343-.317-1.944-.973-2.223-2.551-2.253-3.184-.038-.794.173-2.298,2.006-3.443.124-.077.253-.146.387-.204-5.108-.481-9.027-2.14-11.917-5.03-2.707-2.707-4.079-6.078-4.079-10.021s1.372-7.314,4.078-10.021c2.762-2.86,6.798-4.556,12.005-5.036-.129-.058-.253-.123-.374-.198-1.794-1.122-2.037-2.595-2.022-3.372.012-.614.233-2.152,2.022-3.176.454-.26.967-.396,1.49-.396h10.6c.466,0,.926.108,1.343.317,1.944.973,2.223,2.551,2.253,3.184.038.794-.173,2.298-2.006,3.443-.119.074-.242.14-.369.196,5.149.472,9.094,2.132,12,5.038,2.707,2.707,4.079,6.078,4.079,10.021,0,4.045-1.374,7.419-4.084,10.028-2.791,2.864-6.817,4.55-11.999,5.029.042.019.084.039.126.06,1.944.973,2.223,2.551,2.253,3.184.038.794-.173,2.298-2.006,3.443-.477.298-1.028.456-1.59.456h-10.6ZM26.1,201.85c-1.876.341-3.381,1.023-4.431,2.023-1.289,1.289-1.969,3.166-1.969,5.527s.659,4.143,2.075,5.633c.965.964,2.419,1.618,4.325,1.938v-15.122ZM36.4,216.95c1.876-.341,3.381-1.023,4.431-2.023,1.326-1.259,1.969-3.065,1.969-5.526,0-2.354-.659-4.144-2.075-5.634-.964-.964-2.418-1.618-4.325-1.938v15.122ZM346.3,231.6c-.465,0-.924-.108-1.34-.316-1.945-.971-2.226-2.549-2.256-3.183-.038-.794.172-2.298,2.006-3.444.354-.222.752-.367,1.166-.426.259-.037.425-.086.524-.123v-28.808c0-.275-.026-.45-.05-.55-.1-.023-.274-.05-.551-.05-.037,0-.113-.002-.114-.002-.86,0-3.161.536-7.415,5.463-.177.205-.382.386-.607.536-.744.495-1.471.736-2.223.736-1.207,0-2.315-.66-2.893-1.725-.302-.556-.448-1.181-.448-1.909,0-.326.054-.651.158-.96l2.5-7.399c.411-1.22,1.555-2.04,2.842-2.04h28.101c1.287,0,2.431.82,2.842,2.04l2.5,7.399c.104.309.158.634.158.96,0,2.433-1.671,3.706-3.32,3.706-1.299,0-2.202-.753-2.499-1-.127-.105-.244-.221-.352-.345-4.103-4.752-6.541-5.461-7.629-5.461-.276,0-.451.026-.551.05-.023.1-.05.274-.05.55,0,0,0,28.835,0,28.852.087.021.212.046.384.062.368.035.726.138,1.056.303,1.945.971,2.226,2.549,2.256,3.183.038.794-.172,2.298-2.006,3.444-.477.298-1.027.456-1.59.456h-10.601ZM123.2,231.6c-.465,0-.924-.108-1.34-.315-1.946-.972-2.226-2.55-2.256-3.184-.038-.794.172-2.299,2.007-3.444.435-.272.933-.428,1.446-.452.148-.008.258-.022.337-.038.004-.045.006-.1.006-.166v-29.325c-.096-.03-.251-.066-.484-.089-.367-.035-.725-.138-1.055-.302-1.946-.972-2.226-2.55-2.256-3.184-.038-.794.172-2.299,2.007-3.444.477-.298,1.027-.456,1.589-.456h17.6c4.214,0,7.787,1.306,10.618,3.88.035.032.07.064.103.099,2.043,2.043,3.079,4.809,3.079,8.222s-.942,6.138-2.801,8.141c-.127.138-.263.28-.406.427.719.533,1.419,1.161,2.092,1.877,2.146,2.144,3.315,5.229,3.315,8.855,0,3.281-1.253,6.264-3.725,8.866-2.694,2.694-6.436,4.033-11.175,4.033h-18.7ZM133.55,224.15c.1.023.274.05.55.05h5.9c2.086,0,3.636-.579,4.879-1.821.481-.481,1.121-1.418,1.121-3.979,0-1.585-.47-2.904-1.477-4.146-1.253-1.366-3.636-1.654-5.423-1.654h-5.6v11c0,.276.027.451.05.551ZM138.7,205.3c1.918,0,3.33-.509,4.315-1.556.618-.62,1.185-1.467,1.185-3.544,0-1.787-.382-3.128-1.135-3.988-1.196-1.085-2.79-1.612-4.865-1.612h-4.1c-.276,0-.45.026-.55.05-.023.1-.05.274-.05.551v10.1h5.2ZM306.1,231.5c-.359,0-.716-.064-1.053-.19-1.808-.678-2.34-1.989-2.496-2.711-.159-.734-.211-2.181,1.229-3.62.459-.459,1.055-.757,1.697-.849.258-.037.424-.085.523-.122v-17.83l-16,16.156s0,1.701,0,1.717c.086.022.211.046.382.062.368.034.728.138,1.059.303,1.945.973,2.225,2.552,2.255,3.185.038.795-.173,2.299-2.008,3.444-.477.297-1.027.455-1.589.455h-10.6c-.466,0-.926-.108-1.343-.317-1.943-.973-2.224-2.551-2.253-3.184-.038-.794.173-2.298,2.006-3.443.354-.222.752-.367,1.166-.426.258-.037.424-.085.523-.122,0-.003,0-29.343,0-29.359-.086-.021-.211-.046-.384-.062-.367-.035-.725-.138-1.055-.303-1.945-.971-2.226-2.549-2.256-3.183-.038-.794.172-2.298,2.006-3.444.477-.298,1.027-.456,1.59-.456h10.6c.465,0,.923.108,1.339.315,1.947.971,2.228,2.55,2.258,3.184.038.795-.172,2.299-2.008,3.445-.354.221-.75.365-1.163.425-.259.037-.426.086-.525.123v17.147l16-16.078s0-.997,0-1.013c-.086-.021-.211-.046-.384-.062-.367-.035-.726-.138-1.057-.303-1.945-.973-2.225-2.552-2.255-3.185-.038-.795.173-2.299,2.008-3.444.477-.297,1.027-.455,1.589-.455h10.6c.466,0,.926.108,1.343.317,1.943.973,2.224,2.551,2.253,3.184.038.794-.173,2.298-2.006,3.443-.354.222-.752.367-1.166.426-.258.037-.424.085-.523.122,0,.003,0,29.243,0,29.259.086.022.211.046.382.062.369.035.729.138,1.06.304,1.943.973,2.224,2.551,2.253,3.184.038.794-.173,2.298-2.006,3.443-.477.298-1.027.456-1.59.456h-10.4ZM229.8,231.5c-.466,0-.926-.108-1.343-.317-1.943-.973-2.224-2.551-2.253-3.184-.038-.794.173-2.298,2.006-3.443.354-.222.752-.367,1.166-.426.258-.037.425-.085.524-.123,0-.002,0-29.336,0-29.349-.082-.025-.21-.055-.398-.073-.362-.036-.716-.139-1.041-.302-1.945-.971-2.226-2.549-2.256-3.183-.038-.794.172-2.298,2.006-3.444.477-.298,1.027-.456,1.59-.456h16.7c5.47,0,9.749,1.507,12.721,4.479,2.489,2.363,3.779,5.585,3.779,9.521,0,4.21-1.159,7.435-3.444,9.584-3.238,3.241-7.653,4.916-13.056,4.916l-6.2.076s0,8.259,0,8.274c.086.021.211.046.383.062.369.035.729.138,1.06.304,1.943.973,2.224,2.551,2.253,3.184.038.794-.173,2.298-2.006,3.443-.477.298-1.027.456-1.59.456h-10.601ZM240.25,194.649c-.023.1-.05.274-.05.551v13.289l4.137-.088c2.899,0,5.021-.803,6.742-2.522.754-.755,1.121-2.188,1.121-4.379,0-2.92-.926-4.183-1.621-4.879-1.415-1.343-3.389-2.021-5.979-2.021h-3.8c-.275,0-.45.026-.55.05Z"/><path class="cls-1" d="M25.9,190.3h10.6c.8.4.8.9,0,1.4-2.1.3-3.1,1.4-3.1,3.1v1.4c0,.8.4,1.1,1.1,1.1,5.9,0,10.2,1.4,13.1,4.3,2.1,2.1,3.2,4.7,3.2,7.9s-1,5.8-3.2,7.9c-2.8,2.9-7.2,4.3-13.1,4.3-.8,0-1.1.4-1.1,1.1v1.4c0,1.6,1,2.7,3.1,3.1.8.4.8.9,0,1.4h-10.6c-.8-.4-.8-.9,0-1.4,2.1-.4,3.2-1.5,3.2-3.1v-1.4c0-.8-.4-1.1-1.1-1.1-5.9,0-10.2-1.4-13.1-4.3-2.1-2.1-3.2-4.7-3.2-7.9s1.1-5.8,3.2-7.9c2.8-2.9,7.2-4.3,13.1-4.3.8,0,1.1-.4,1.1-1.1v-1.4c0-1.8-1-2.9-3.1-3.1-.8-.5-.8-1-.1-1.4ZM29.1,220.2v-21.6c-4.2,0-7.4,1.1-9.5,3.1-1.9,1.9-2.9,4.5-2.9,7.7s1,5.7,2.9,7.7c2.1,2.1,5.3,3.1,9.5,3.1ZM33.4,220.2c4.2,0,7.4-1.1,9.5-3.1,2-1.9,2.9-4.5,2.9-7.7s-1-5.7-2.9-7.7c-2.1-2.1-5.3-3.1-9.5-3.1v21.6ZM71.2,222.5l9.9-26.8c.2-1.1-.4-1.6-1.8-1.8-.9-.1-1.1-.5-.4-1.1,2.2-1.1,4-2.1,5.2-3.1.3-.1.5-.2.7-.2.4,0,.8.2,1.1.7l13.1,33.8c.8,1.7,2.2,2.8,4.5,3.4.8.6.8,1.1,0,1.4h-13.2c-.9-.4-.9-.9,0-1.4,2.4-.8,3.6-1.6,3.6-2.5,0-.6-.1-1.1-.2-1.6l-1.8-4.9c-.4-1.1-1.1-1.6-2-1.6h-12.9c-1.1,0-1.8.5-2.2,1.6-.6,1.5-1.3,3.4-2,5.6-.2,1.4.4,2.2,1.6,2.7.6.3,1.3.5,2,.7.8.6.8,1.1,0,1.4h-10.4c-.9-.4-.9-.9,0-1.4,2.6-.9,4.3-2.5,5.2-4.9h0ZM77,215.3h12.6c.8,0,1.1-.3.9-.9l-6.3-17.1c-.6-1.1-1.2-1.1-1.8,0l-6.3,17.1c-.1.6.2.9.9.9h0ZM151.3,211.9c1.6,1.6,2.5,3.9,2.5,6.8,0,2.6-1,4.8-2.9,6.8-2.1,2.1-5.1,3.1-9,3.1h-18.7c-.8-.4-.8-.9,0-1.4,2.1-.1,3.2-1.2,3.2-3.2v-29.3c0-1.8-1.1-2.9-3.2-3.1-.8-.4-.8-.9,0-1.4h17.6c3.6,0,6.4,1.1,8.6,3.1,1.5,1.5,2.2,3.5,2.2,6.1,0,2.7-.7,4.7-2,6.1s-2.4,2.2-3.1,2.5c-.3.3-.3.6,0,.9,1.5.3,3.2,1.3,4.8,3h0ZM145.2,205.8c1.4-1.4,2-3.2,2-5.6,0-2.7-.7-4.7-2-6.1-1.7-1.6-4-2.5-7-2.5h-4.1c-2.4,0-3.6,1.2-3.6,3.6v11.7c0,.9.4,1.4,1.4,1.4h6.8c2.7,0,4.9-.8,6.5-2.5h0ZM147,224.5c1.4-1.4,2-3.4,2-6.1,0-2.4-.8-4.4-2.2-6.1-1.6-1.8-4.2-2.7-7.7-2.7h-7.2c-.9,0-1.4.4-1.4,1.4v12.6c0,2.4,1.2,3.6,3.6,3.6h5.9c2.9,0,5.2-.9,7-2.7h0ZM204.4,194.8c3.6,3.6,5.4,8.5,5.4,14.6s-1.8,11-5.4,14.6c-3.6,3.6-8,5.4-13.3,5.4s-9.7-1.8-13.3-5.4c-3.6-3.6-5.4-8.5-5.4-14.6s1.8-11,5.4-14.6c3.6-3.6,8-5.4,13.3-5.4s9.7,1.8,13.3,5.4ZM182.1,194.5c-3.1,3.1-4.7,8.1-4.7,14.9s1.6,11.7,4.7,14.9c2.6,2.6,5.6,3.8,9,3.8s6.4-1.3,9-3.8c3.1-3.1,4.7-8.1,4.7-14.9s-1.6-11.7-4.7-14.9c-2.6-2.6-5.6-3.8-9-3.8s-6.4,1.3-9,3.8ZM238.4,212.8c-.8,0-1.1.4-1.1,1.1v10.1c0,1.8,1,2.9,3.1,3.1.8.4.8.9,0,1.4h-10.6c-.8-.4-.8-.9,0-1.4,2.1-.3,3.1-1.4,3.1-3.1v-29.3c0-1.8-1.1-2.9-3.1-3.1-.8-.4-.8-.9,0-1.4h16.7c4.6,0,8.2,1.2,10.6,3.6,2,1.9,2.9,4.4,2.9,7.4,0,3.3-.8,5.8-2.5,7.4-2.7,2.7-6.4,4.1-11,4.1l-8.1.1h0ZM244.4,211.4c3.6,0,6.5-1.1,8.8-3.4,1.4-1.4,2-3.5,2-6.5s-.8-5.3-2.5-7c-2-1.9-4.7-2.9-8.1-2.9h-3.8c-2.4,0-3.6,1.2-3.6,3.6v13.8c0,1.6.8,2.5,2.5,2.5l4.7-.1h0ZM287,221.1v2.9c0,1.8,1,2.9,3.1,3.1.8.4.8.9,0,1.4h-10.6c-.8-.4-.8-.9,0-1.4,2.1-.3,3.1-1.4,3.1-3.1v-29.3c0-1.8-1-2.9-3.1-3.1-.8-.4-.8-.9,0-1.4h10.6c.8.4.8.9,0,1.4-2.1.3-3.1,1.4-3.1,3.1v22.1c0,1.5.5,1.7,1.6.7l20.4-20.5v-2.2c0-1.8-1-2.9-3.1-3.1-.8-.4-.8-.9,0-1.4h10.6c.8.4.8.9,0,1.4-2.1.3-3.1,1.4-3.1,3.1v29.2c0,1.8,1,2.9,3.1,3.1.8.4.8.9,0,1.4h-10.4c-.8-.3-.8-.8-.2-1.4,2.1-.3,3.1-1.4,3.1-3.1v-22.8c0-1.5-.5-1.7-1.6-.7l-20.4,20.6h0ZM336,198.2c-.6.4-.9.3-.9-.4l2.5-7.4h28.1l2.5,7.4c0,.8-.3.9-.9.4-3.8-4.4-7.1-6.5-9.9-6.5-2.4,0-3.6,1.2-3.6,3.6v28.8c0,1.8,1,2.9,3.1,3.1.8.4.8.9,0,1.4h-10.6c-.8-.4-.8-.9,0-1.4,2.1-.3,3.1-1.4,3.1-3.1v-28.8c0-2.4-1.2-3.6-3.6-3.6-2.7-.1-6,2.1-9.8,6.5h0Z"/><path class="cls-1" d="M149.1,284.9c-1.051,0-2.01-.548-2.55-1.419-.529.852-1.474,1.419-2.55,1.419h-5.8c-1.657,0-3-1.343-3-3v-.9c0-1.269.787-2.354,1.9-2.792v-14.316c-1.113-.438-1.9-1.523-1.9-2.792v-.8c0-1.657,1.343-3,3-3h7.1c2.86,0,5.154.768,6.818,2.28.035.032.069.064.103.099.948.948,2.079,2.692,2.079,5.621,0,2.253-.73,4.207-2.17,5.807-.443.492-.933.925-1.474,1.3l2.337,5.719c1.471.192,2.607,1.451,2.607,2.975v.801c0,1.657-1.343,3-3,3h-3.5ZM145.1,267.194c.4-.026.695-.132.879-.316.106-.106.221-.498.221-1.278,0-.586-.091-1.025-.271-1.309-.093-.047-.329-.137-.829-.174v3.077ZM259.5,284.8c-.525,0-1.02-.135-1.449-.373-.383.177-.808.273-1.251.273h-.8c-.462,0-.903-.105-1.299-.296-.394.189-.835.296-1.301.296h-3.801c-1.657,0-3-1.343-3-3v-.7c0-1.11.604-2.08,1.5-2.599v-14.648c-.951-.503-1.6-1.502-1.6-2.653v-.8c0-1.657,1.343-3,3-3h3.6c1.415,0,2.637.988,2.934,2.371l.88,4.106.965-4.156c.315-1.359,1.526-2.321,2.922-2.321h4c1.657,0,3,1.343,3,3v.8c0,1.147-.645,2.145-1.591,2.648l.082,14.593c.956.501,1.609,1.504,1.609,2.659v.8c0,1.657-1.343,3-3,3h-5.4ZM207.5,284.8c-1.657,0-3-1.343-3-3v-.8c0-1.657,1.343-3,3-3h1v-13.9h-1c-1.657,0-3-1.343-3-3v-.8c0-1.657,1.343-3,3-3h10c1.657,0,3,1.343,3,3v.8c0,1.657-1.343,3-3,3h-1v13.9h1c1.657,0,3,1.343,3,3v.8c0,1.657-1.343,3-3,3h-10ZM192.3,284.8c-.525,0-1.02-.135-1.449-.372-.383.176-.808.272-1.25.272h-.8c-.462,0-.904-.105-1.299-.296-.394.189-.834.296-1.3.296h-3.8c-1.657,0-3-1.343-3-3v-.7c0-1.11.603-2.08,1.5-2.599v-14.647c-.952-.503-1.6-1.503-1.6-2.654v-.8c0-1.657,1.343-3,3-3h3.6c1.415,0,2.637.988,2.934,2.371l.879,4.105.964-4.155c.315-1.359,1.527-2.321,2.922-2.321h4c1.657,0,3,1.343,3,3v.8c0,1.147-.645,2.145-1.591,2.648l.082,14.593c.956.501,1.609,1.504,1.609,2.659v.8c0,1.657-1.343,3-3,3h-5.4ZM115.5,284.8c-1.657,0-3-1.343-3-3v-.8c0-1.307.835-2.418,2-2.829v-14.279c-1.113-.438-1.9-1.523-1.9-2.792v-.8c0-1.657,1.343-3,3-3h7.4c2.976,0,5.274.781,7.027,2.39.032.029.063.059.094.09,1.556,1.556,2.379,3.638,2.379,6.021,0,2.483-.8,4.543-2.379,6.121-1.792,1.792-4.179,2.779-6.721,2.779h-.9v3.471c1.165.411,2,1.522,2,2.829v.8c0,1.657-1.343,3-3,3h-6ZM122.7,267.9c.799,0,1.148-.213,1.407-.442.181-.161.393-.666.393-1.558,0-1.158-.353-1.511-.522-1.68,0,0-.277-.208-1.378-.22v3.899h.1ZM234.7,284.7c-2.616,0-4.743-.801-6.321-2.379-1.491-1.491-2.279-3.538-2.279-5.921v-12.696c-1.005-.484-1.699-1.514-1.699-2.704v-.8c0-1.657,1.343-3,3-3h5.5c.952,0,1.8.443,2.35,1.135.55-.691,1.397-1.135,2.35-1.135h4.5c1.657,0,3,1.343,3,3v.8c0,1.269-.787,2.353-1.899,2.792v12.508c0,2.317-.822,4.365-2.379,5.921-.03.031-.062.061-.094.09-1.729,1.586-3.757,2.39-6.027,2.39ZM234.245,277.612c.221.072.514.088.755.088.549,0,.84-.065.959-.103.048-.048.098-.095.148-.141.342-.304.393-.855.393-1.157v-12.508c-.494-.194-.925-.518-1.25-.927-.28.354-.64.642-1.05.839v12.696c0,.06-.002.118-.005.178-.029.482.008.827.05,1.034ZM160.6,284.5c-1.657,0-3-1.343-3-3v-.5c0-1.269.787-2.354,1.9-2.792v-14.316c-1.113-.438-1.9-1.523-1.9-2.792v-.8c0-1.657,1.343-3,3-3h12.3c1.292,0,2.438.826,2.846,2.052l1.4,4.2c.523,1.571-.325,3.27-1.896,3.794l-.6.2c-.116.039-.233.07-.351.094v5.762c.282.01.566.059.846.152l.6.199c1.525.507,2.38,2.125,1.939,3.671l-1.4,4.9c-.368,1.288-1.545,2.176-2.885,2.176h-12.8ZM168.9,277.8c.346,0,1.035,0,1.749-1h-.149c-1.657,0-3-1.343-3-3v4h1.4ZM167.5,266.4c0-1.044.533-1.963,1.341-2.5h-1.341v2.8-.3ZM272.7,274c-1.657,0-3-1.343-3-3v-1.1c0-1.657,1.343-3,3-3h13.899c1.657,0,3,1.343,3,3v1.1c0,1.657-1.343,3-3,3h-13.899ZM93.4,274c-1.657,0-3-1.343-3-3v-1.1c0-1.657,1.343-3,3-3h13.9c1.657,0,3,1.343,3,3v1.1c0,1.657-1.343,3-3,3h-13.9Z"/><path class="cls-1" d="M93.4,269.9h13.9v1.1h-13.9v-1.1ZM119.5,271.7v8.3c0,.7.4,1,1.1,1h.9v.8h-6v-.8h.9c.8,0,1.1-.3,1.1-1v-17.9c0-.7-.4-1-1.1-1h-.8v-.8h7.4c2.2,0,3.8.5,5,1.6,1,1,1.5,2.3,1.5,3.9,0,1.7-.5,3-1.5,4-1.2,1.2-2.8,1.9-4.6,1.9h-3.9ZM122.7,270.9c1.4,0,2.5-.4,3.4-1.2.9-.8,1.4-2.1,1.4-3.8s-.5-2.9-1.4-3.8c-.8-.8-2-1.1-3.6-1.1h-1.8c-.8,0-1.1.3-1.1,1v8.9h3.1ZM150.1,261.8c.8.8,1.2,2,1.2,3.5,0,1.6-.5,2.8-1.4,3.8s-2,1.5-3.1,1.8l3.8,9.3c.3.6.8.9,1.2.9h.8v.8h-3.5l-4.1-10.8h-2.9v9c0,.7.4,1,1.1,1h.8v.8h-5.8v-.9h.8c.8,0,1.1-.3,1.1-1v-17.9c0-.7-.4-1-1.1-1h-.8v-.8h7.1c2.1,0,3.7.5,4.8,1.5h0ZM142.1,270.2h2.8c1.3,0,2.4-.4,3.2-1.2.8-.8,1.1-1.9,1.1-3.4s-.4-2.6-1.1-3.4c-.8-.8-2-1.1-3.5-1.1h-1.4c-.8,0-1.1.3-1.1,1v8.1h0ZM160.6,261.1v-.8h12.3l1.4,4.2-.6.2c-1.3-2.5-2.9-3.8-4.6-3.8h-3.5c-.8,0-1.1.3-1.1,1v7.8h3.6c1.6,0,2.4-.8,2.4-2.5v-.8h.8v7.4h-.8v-.5c0-1.9-.8-2.9-2.4-2.9h-3.6v9.4c0,.7.4,1,1.1,1h3.3c2.4,0,4.2-1.5,5.3-4.4l.6.2-1.4,4.9h-12.8v-.5h.8c.8,0,1.1-.3,1.1-1v-17.9c0-.7-.4-1-1.1-1h-.8ZM196.1,280c0,.7.4,1,1.1,1h.5v.8h-5.4v-.8h.6c.8,0,1.1-.3,1.1-1v-16.4h-.2l-4.2,18.1h-.8l-3.9-17.8h-.2v16c0,.7.4,1,1.1,1h.4v.8h-3.8v-.7h.4c.8,0,1.1-.3,1.1-1v-17.9c0-.7-.4-1-1.1-1h-.5v-.8h3.6l3.6,16.8h.2l3.9-16.8h4v.8h-.5c-.8,0-1.1.3-1.1,1l.1,17.9h0ZM207.5,261.1v-.8h10v.8h-2.9c-.8,0-1.1.3-1.1,1v17.9c0,.7.4,1,1.1,1h2.9v.8h-10v-.8h2.9c.8,0,1.1-.3,1.1-1v-17.9c0-.7-.4-1-1.1-1h-2.9ZM232.1,279.8c.7.6,1.6.9,2.9.9,1.4,0,2.5-.3,3.1-1,.9-.8,1.4-2,1.4-3.4v-14.3c0-.7-.4-1-1.1-1h-.8v-.8h4.5v.8h-.8c-.8,0-1.1.3-1.1,1v14.3c0,1.5-.5,2.8-1.5,3.8-1.2,1.1-2.5,1.6-4,1.6-1.8,0-3.2-.5-4.2-1.5-.9-.9-1.4-2.2-1.4-3.8v-14.4c0-.7-.4-1-1.1-1h-.6v-.8h5.5v.8h-.6c-.8,0-1.1.3-1.1,1v14.4c-.1,1.7.3,2.9.9,3.4h0ZM263.3,280c0,.7.4,1,1.1,1h.5v.8h-5.4v-.8h.6c.8,0,1.1-.3,1.1-1v-16.4h-.2l-4.2,18.1h-.8l-3.9-17.8h-.2v16c0,.7.4,1,1.1,1h.4v.8h-3.8v-.7h.4c.8,0,1.1-.3,1.1-1v-17.9c0-.7-.4-1-1.1-1h-.5v-.8h3.6l3.6,16.8h.2l3.9-16.8h4v.8h-.5c-.8,0-1.1.3-1.1,1l.1,17.9h0ZM272.7,269.9h13.9v1.1h-13.9v-1.1Z"/></g></svg>