<svg xmlns="http://www.w3.org/2000/svg" id="Layer_1_copy" viewBox="0 0 380 290">
  <defs/>
  <g id="Layer_1">
    <path d="M214.52 61.7c0-8.1-6.47-16.3-18.85-16.54l.61-.28c1.1-.5 2.95-1.33 3.16-3.43.08-.76-.05-2.24-1.79-3.48a2.98 2.98 0 0 0-1.75-.57h-11.8a3 3 0 0 0-1.82.61c-1.61 1.23-1.82 2.6-1.71 3.53.24 2.1 2.09 2.91 3.19 3.4.15.06.33.14.5.23-5.57.12-10.3 1.85-13.72 5.02a15.55 15.55 0 0 0-5.06 11.51c0 8.06 6.41 16.22 18.68 16.53l-.47.24c-1.19.58-2.99 1.47-3.14 3.59-.05.77.12 2.23 1.86 3.42a3 3 0 0 0 1.69.52h11.8c.63 0 1.24-.2 1.75-.57 1.72-1.23 1.86-2.7 1.79-3.46-.18-2.12-1.99-2.99-3.18-3.56l-.36-.18c12.23-.34 18.62-8.48 18.62-16.53Zm-26.92 12c-18.3 1.3-18.3-25.3 0-24v24Zm4.8 0v-24c18.3-1.3 18.3 25.3 0 24Z" class="cls-1"/>
    <path d="M193.6 75.2c23.9 1.3 23.9-28.3 0-27-1.6.1-1.2-1.7-1.2-2.8-.8-3.5 6-3.2 3.5-5h-11.8c-2.5 1.9 4.3 1.5 3.5 5 0 1 .3 2.9-1.2 2.8-23.9-1.3-23.9 28.3 0 27 1.6-.1 1.2 1.7 1.2 2.8.8 3.2-6 3.3-3.5 5h11.8c2.5-1.8-4.3-1.8-3.5-5 0-1.1-.4-2.9 1.2-2.8Zm-6-1.5c-18.3 1.3-18.3-25.3 0-24v24Zm4.8-24c18.3-1.3 18.3 25.3 0 24v-24Z" class="cls-1"/>
    <path d="M189.8 160.1a3 3 0 0 1-2.18-1.18l-3.6-4.7a344.67 344.67 0 0 1-25.95-35.31l-2.44-3.84C140.57 91.36 133.7 80.53 133.7 60v-.1c0-30.1 25.21-54.6 56.2-54.6h.2c31 0 56.3 24.49 56.4 54.59 0 20.64-6.88 31.47-21.95 55.2l-2.42 3.81a360.4 360.4 0 0 1-25.95 35.32l-3.6 4.7a3 3 0 0 1-2.38 1.18h-.4Zm.1-134.5c-19.9 0-36.1 16.2-36.1 36.1s16.24 36.1 36.2 36.1a36.09 36.09 0 0 0-.1-72.2Z" class="cls-1"/>
    <path d="M190.1 8.3h-.2c-29.4 0-53.2 23.2-53.2 51.6v.1c0 20.7 7.3 31.1 23.9 57.3 12.2 19.2 25.7 35 25.8 35.1l3.6 4.7.1-.1.1.1 3.6-4.7c.1-.2 13.6-16 25.8-35.1 16.6-26.2 23.9-36.6 23.9-57.4-.1-28.4-24-51.6-53.4-51.6Zm-.1 92.5c-21.6 0-39.2-17.5-39.2-39.1a39.1 39.1 0 1 1 78.2 0 39 39 0 0 1-39 39.1ZM191.1 232.4a21.06 21.06 0 0 1-15.42-6.28c-4.17-4.16-6.28-9.8-6.28-16.72s2.11-12.55 6.28-16.72c4.16-4.17 9.35-6.28 15.42-6.28s11.25 2.11 15.42 6.28c4.17 4.16 6.28 9.8 6.28 16.72s-2.11 12.55-6.28 16.72a21.06 21.06 0 0 1-15.42 6.28Zm0-38.7c-2.58 0-4.85.97-6.92 2.96-2.5 2.5-3.78 6.8-3.78 12.74 0 5.86 1.3 10.17 3.86 12.81a9.18 9.18 0 0 0 6.84 2.89c2.59 0 4.85-.97 6.92-2.96 2.5-2.5 3.78-6.8 3.78-12.74 0-5.86-1.3-10.17-3.85-12.81a9.18 9.18 0 0 0-6.85-2.89ZM90.3 231.8a3 3 0 0 1-1.22-.26c-2.12-.94-2.42-2.59-2.45-3.25-.04-.83.2-2.4 2.21-3.51.16-.1.33-.17.51-.23.65-.21 1.1-.4 1.41-.54l-1.54-4.21H77.47a78.77 78.77 0 0 0-1.55 4.3c.35.14.81.27 1.3.42.35.1.69.26.98.48 1.8 1.35 1.88 2.9 1.76 3.7a3.66 3.66 0 0 1-2.5 2.9 3 3 0 0 1-1.06.2H66a3 3 0 0 1-1.22-.26c-2.12-.94-2.42-2.59-2.45-3.25-.04-.83.2-2.4 2.21-3.51.15-.09.31-.16.48-.22a5 5 0 0 0 3.37-3.12l9.2-24.9a3.43 3.43 0 0 1-1.97-2.14c-.2-.65-.47-2.34 1.32-3.88.2-.16.4-.3.62-.4a27.3 27.3 0 0 0 4.62-2.73 3 3 0 0 1 .96-.54l.14-.05c.32-.11.84-.3 1.52-.3a4.23 4.23 0 0 1 3.9 2.61l13.05 33.7c.32.62.87 1.26 2.5 1.68.38.1.74.27 1.05.5 1.8 1.36 1.88 2.9 1.77 3.7a3.66 3.66 0 0 1-2.52 2.92 3 3 0 0 1-1.05.19H90.3Zm-3.77-19.5-3.23-8.77-3.23 8.77h6.46ZM25.9 231.7a3 3 0 0 1-1.34-.32 3.74 3.74 0 0 1-2.26-3.18c-.03-.8.18-2.3 2.01-3.44.12-.08.25-.15.39-.2-5.11-.49-9.03-2.15-11.92-5.04-2.7-2.7-4.08-6.08-4.08-10.02s1.37-7.31 4.08-10.02c2.76-2.86 6.8-4.56 12-5.04a3.18 3.18 0 0 1-.37-.2c-1.8-1.12-2.04-2.59-2.02-3.37a3.72 3.72 0 0 1 3.51-3.57h10.6a3 3 0 0 1 1.34.32 3.74 3.74 0 0 1 2.26 3.18c.03.8-.18 2.3-2.01 3.45l-.37.2c5.15.46 9.1 2.12 12 5.03 2.7 2.7 4.08 6.08 4.08 10.02 0 4.05-1.37 7.42-4.08 10.03-2.8 2.86-6.82 4.55-12 5.03l.12.06a3.74 3.74 0 0 1 2.26 3.18c.03.8-.18 2.3-2.01 3.45a3 3 0 0 1-1.59.45H25.9Zm.2-29.85a8.52 8.52 0 0 0-4.43 2.02c-1.29 1.3-1.97 3.17-1.97 5.53s.66 4.14 2.08 5.63c.96.97 2.41 1.62 4.32 1.94v-15.12Zm10.3 15.1a8.52 8.52 0 0 0 4.43-2.02c1.33-1.26 1.97-3.07 1.97-5.53 0-2.35-.66-4.14-2.08-5.63-.96-.97-2.41-1.62-4.32-1.94v15.12Zm309.9 14.65a3 3 0 0 1-1.34-.32 3.74 3.74 0 0 1-2.26-3.18c-.03-.8.18-2.3 2.01-3.44.35-.22.75-.37 1.17-.43.26-.04.42-.08.52-.12V195.3c0-.27-.03-.45-.05-.55-.1-.02-.27-.05-.55-.05h-.11c-.86 0-3.17.53-7.42 5.46a3.95 3.95 0 0 1-2.83 1.27c-1.2 0-2.31-.66-2.9-1.72a3.9 3.9 0 0 1-.28-2.87l2.5-7.4a3 3 0 0 1 2.84-2.04h28.1a3 3 0 0 1 2.84 2.04l2.5 7.4c.1.3.16.63.16.96 0 2.43-1.67 3.7-3.32 3.7-1.3 0-2.2-.75-2.5-1-.13-.1-.24-.22-.35-.34-4.1-4.75-6.54-5.46-7.63-5.46-.28 0-.45.02-.55.05-.02.1-.05.27-.05.55v28.85c.09.02.21.05.38.06a3 3 0 0 1 1.06.3 3.74 3.74 0 0 1 2.26 3.19c.03.8-.18 2.3-2.01 3.44a3 3 0 0 1-1.6.46h-10.6Zm-223.1 0a3 3 0 0 1-1.34-.32 3.74 3.74 0 0 1-2.26-3.18c-.03-.8.18-2.3 2.01-3.44a3 3 0 0 1 1.45-.45l.33-.04.01-.17v-29.32c-.1-.03-.25-.07-.48-.1a3.02 3.02 0 0 1-1.06-.3 3.74 3.74 0 0 1-2.26-3.18c-.03-.8.18-2.3 2.01-3.44a3 3 0 0 1 1.6-.46h17.6c4.2 0 7.78 1.3 10.6 3.88l.11.1c2.04 2.04 3.08 4.8 3.08 8.22s-.94 6.14-2.8 8.14l-.4.43a15.8 15.8 0 0 1 2.09 1.88c2.14 2.14 3.31 5.23 3.31 8.85a12.6 12.6 0 0 1-3.72 8.87c-2.7 2.7-6.44 4.03-11.18 4.03h-18.7Zm10.35-7.45c.1.02.27.05.55.05h5.9c2.09 0 3.64-.58 4.88-1.82.48-.48 1.12-1.42 1.12-3.98 0-1.58-.47-2.9-1.48-4.15-1.25-1.36-3.63-1.65-5.42-1.65h-5.6v11c0 .28.03.45.05.55Zm5.15-18.85c1.92 0 3.33-.5 4.32-1.56.61-.62 1.18-1.46 1.18-3.54 0-1.79-.38-3.13-1.14-3.99-1.2-1.08-2.79-1.61-4.86-1.61h-4.1c-.28 0-.45.03-.55.05-.02.1-.05.27-.05.55v10.1h5.2Zm167.4 26.2a3 3 0 0 1-1.05-.19 3.71 3.71 0 0 1-2.5-2.71c-.16-.74-.21-2.18 1.23-3.62a3 3 0 0 1 1.7-.85c.26-.04.42-.09.52-.12v-17.83l-16 16.15v1.72c.09.02.21.05.38.06a3 3 0 0 1 1.06.3 3.74 3.74 0 0 1 2.26 3.2c.03.79-.18 2.29-2.01 3.44a3 3 0 0 1-1.6.45h-10.6a3 3 0 0 1-1.33-.32 3.74 3.74 0 0 1-2.26-3.18c-.03-.8.18-2.3 2-3.44.36-.23.76-.37 1.18-.43.25-.04.42-.08.52-.12v-29.36a2.61 2.61 0 0 0-.39-.06 3 3 0 0 1-1.05-.3 3.74 3.74 0 0 1-2.26-3.19c-.03-.8.18-2.3 2-3.44a3 3 0 0 1 1.6-.46h10.6a3 3 0 0 1 1.34.32 3.74 3.74 0 0 1 2.26 3.18c.03.8-.18 2.3-2.01 3.45-.36.22-.75.36-1.16.42-.26.04-.43.09-.53.12v17.15l16-16.08v-1.01a2.61 2.61 0 0 0-.38-.06 3.01 3.01 0 0 1-1.06-.3 3.74 3.74 0 0 1-2.26-3.2c-.03-.79.18-2.29 2.01-3.44a3 3 0 0 1 1.6-.45h10.6a3 3 0 0 1 1.33.32 3.74 3.74 0 0 1 2.26 3.18c.04.8-.18 2.3-2 3.44-.36.23-.76.37-1.17.43-.26.04-.43.09-.53.12v29.26c.09.02.21.05.38.06a3 3 0 0 1 1.06.3 3.74 3.74 0 0 1 2.26 3.2c.04.78-.18 2.29-2 3.43a3 3 0 0 1-1.6.46h-10.4Zm-76.3 0a3 3 0 0 1-1.34-.32 3.74 3.74 0 0 1-2.26-3.18c-.03-.8.18-2.3 2.01-3.44.35-.23.75-.37 1.17-.43.25-.04.42-.09.52-.12v-29.35a2.03 2.03 0 0 0-.4-.07 2.99 2.99 0 0 1-1.04-.3 3.74 3.74 0 0 1-2.25-3.19c-.04-.8.17-2.3 2-3.44a3 3 0 0 1 1.6-.46h16.7c5.46 0 9.74 1.5 12.71 4.48 2.5 2.36 3.78 5.58 3.78 9.52 0 4.21-1.16 7.44-3.44 9.58-3.24 3.25-7.66 4.92-13.06 4.92l-6.2.08v8.27c.09.02.21.05.38.06a3 3 0 0 1 1.06.3 3.74 3.74 0 0 1 2.26 3.19c.03.8-.18 2.3-2 3.44a3 3 0 0 1-1.6.46h-10.6Zm10.45-36.85c-.02.1-.05.27-.05.55v13.29l4.14-.09c2.9 0 5.02-.8 6.74-2.52.75-.76 1.12-2.19 1.12-4.38 0-2.92-.93-4.18-1.62-4.88-1.42-1.34-3.39-2.02-5.98-2.02h-3.8c-.28 0-.45.03-.55.05Z" class="cls-1"/>
    <path d="M25.9 190.3h10.6c.8.4.8.9 0 1.4-2.1.3-3.1 1.4-3.1 3.1v1.4c0 .8.4 1.1 1.1 1.1 5.9 0 10.2 1.4 13.1 4.3 2.1 2.1 3.2 4.7 3.2 7.9s-1 5.8-3.2 7.9c-2.8 2.9-7.2 4.3-13.1 4.3-.8 0-1.1.4-1.1 1.1v1.4c0 1.6 1 2.7 3.1 3.1.8.4.8.9 0 1.4H25.9c-.8-.4-.8-.9 0-1.4 2.1-.4 3.2-1.5 3.2-3.1v-1.4c0-.8-.4-1.1-1.1-1.1-5.9 0-10.2-1.4-13.1-4.3-2.1-2.1-3.2-4.7-3.2-7.9s1.1-5.8 3.2-7.9c2.8-2.9 7.2-4.3 13.1-4.3.8 0 1.1-.4 1.1-1.1v-1.4c0-1.8-1-2.9-3.1-3.1-.8-.5-.8-1-.1-1.4Zm3.2 29.9v-21.6c-4.2 0-7.4 1.1-9.5 3.1-1.9 1.9-2.9 4.5-2.9 7.7s1 5.7 2.9 7.7c2.1 2.1 5.3 3.1 9.5 3.1Zm4.3 0c4.2 0 7.4-1.1 9.5-3.1 2-1.9 2.9-4.5 2.9-7.7s-1-5.7-2.9-7.7c-2.1-2.1-5.3-3.1-9.5-3.1v21.6Zm37.8 2.3 9.9-26.8c.2-1.1-.4-1.6-1.8-1.8-.9-.1-1.1-.5-.4-1.1 2.2-1.1 4-2.1 5.2-3.1.3-.1.5-.2.7-.2.4 0 .8.2 1.1.7L99 224c.8 1.7 2.2 2.8 4.5 3.4.8.6.8 1.1 0 1.4H90.3c-.9-.4-.9-.9 0-1.4 2.4-.8 3.6-1.6 3.6-2.5 0-.6-.1-1.1-.2-1.6l-1.8-4.9c-.4-1.1-1.1-1.6-2-1.6H77c-1.1 0-1.8.5-2.2 1.6-.6 1.5-1.3 3.4-2 5.6-.2 1.4.4 2.2 1.6 2.7.6.3 1.3.5 2 .7.8.6.8 1.1 0 1.4H66c-.9-.4-.9-.9 0-1.4 2.6-.9 4.3-2.5 5.2-4.9Zm5.8-7.2h12.6c.8 0 1.1-.3.9-.9l-6.3-17.1c-.6-1.1-1.2-1.1-1.8 0l-6.3 17.1c-.1.6.2.9.9.9Zm74.3-3.4c1.6 1.6 2.5 3.9 2.5 6.8 0 2.6-1 4.8-2.9 6.8-2.1 2.1-5.1 3.1-9 3.1h-18.7c-.8-.4-.8-.9 0-1.4 2.1-.1 3.2-1.2 3.2-3.2v-29.3c0-1.8-1.1-2.9-3.2-3.1-.8-.4-.8-.9 0-1.4h17.6c3.6 0 6.4 1.1 8.6 3.1 1.5 1.5 2.2 3.5 2.2 6.1 0 2.7-.7 4.7-2 6.1s-2.4 2.2-3.1 2.5c-.3.3-.3.6 0 .9 1.5.3 3.2 1.3 4.8 3Zm-6.1-6.1c1.4-1.4 2-3.2 2-5.6 0-2.7-.7-4.7-2-6.1-1.7-1.6-4-2.5-7-2.5h-4.1c-2.4 0-3.6 1.2-3.6 3.6v11.7c0 .9.4 1.4 1.4 1.4h6.8c2.7 0 4.9-.8 6.5-2.5Zm1.8 18.7c1.4-1.4 2-3.4 2-6.1 0-2.4-.8-4.4-2.2-6.1-1.6-1.8-4.2-2.7-7.7-2.7h-7.2c-.9 0-1.4.4-1.4 1.4v12.6c0 2.4 1.2 3.6 3.6 3.6h5.9c2.9 0 5.2-.9 7-2.7Zm57.4-29.7c3.6 3.6 5.4 8.5 5.4 14.6s-1.8 11-5.4 14.6c-3.6 3.6-8 5.4-13.3 5.4s-9.7-1.8-13.3-5.4c-3.6-3.6-5.4-8.5-5.4-14.6s1.8-11 5.4-14.6c3.6-3.6 8-5.4 13.3-5.4s9.7 1.8 13.3 5.4Zm-22.3-.3c-3.1 3.1-4.7 8.1-4.7 14.9s1.6 11.7 4.7 14.9c2.6 2.6 5.6 3.8 9 3.8s6.4-1.3 9-3.8c3.1-3.1 4.7-8.1 4.7-14.9s-1.6-11.7-4.7-14.9c-2.6-2.6-5.6-3.8-9-3.8s-6.4 1.3-9 3.8Zm56.3 18.3c-.8 0-1.1.4-1.1 1.1V224c0 1.8 1 2.9 3.1 3.1.8.4.8.9 0 1.4h-10.6c-.8-.4-.8-.9 0-1.4 2.1-.3 3.1-1.4 3.1-3.1v-29.3c0-1.8-1.1-2.9-3.1-3.1-.8-.4-.8-.9 0-1.4h16.7c4.6 0 8.2 1.2 10.6 3.6 2 1.9 2.9 4.4 2.9 7.4 0 3.3-.8 5.8-2.5 7.4-2.7 2.7-6.4 4.1-11 4.1l-8.1.1Zm6-1.4c3.6 0 6.5-1.1 8.8-3.4 1.4-1.4 2-3.5 2-6.5s-.8-5.3-2.5-7c-2-1.9-4.7-2.9-8.1-2.9h-3.8c-2.4 0-3.6 1.2-3.6 3.6V209c0 1.6.8 2.5 2.5 2.5l4.7-.1Zm42.6 9.7v2.9c0 1.8 1 2.9 3.1 3.1.8.4.8.9 0 1.4h-10.6c-.8-.4-.8-.9 0-1.4 2.1-.3 3.1-1.4 3.1-3.1v-29.3c0-1.8-1-2.9-3.1-3.1-.8-.4-.8-.9 0-1.4h10.6c.8.4.8.9 0 1.4-2.1.3-3.1 1.4-3.1 3.1v22.1c0 1.5.5 1.7 1.6.7L309 197v-2.2c0-1.8-1-2.9-3.1-3.1-.8-.4-.8-.9 0-1.4h10.6c.8.4.8.9 0 1.4-2.1.3-3.1 1.4-3.1 3.1V224c0 1.8 1 2.9 3.1 3.1.8.4.8.9 0 1.4h-10.4c-.8-.3-.8-.8-.2-1.4 2.1-.3 3.1-1.4 3.1-3.1v-22.8c0-1.5-.5-1.7-1.6-.7L287 221.1Zm49-22.9c-.6.4-.9.3-.9-.4l2.5-7.4h28.1l2.5 7.4c0 .8-.3.9-.9.4-3.8-4.4-7.1-6.5-9.9-6.5-2.4 0-3.6 1.2-3.6 3.6v28.8c0 1.8 1 2.9 3.1 3.1.8.4.8.9 0 1.4h-10.6c-.8-.4-.8-.9 0-1.4 2.1-.3 3.1-1.4 3.1-3.1v-28.8c0-2.4-1.2-3.6-3.6-3.6-2.7-.1-6 2.1-9.8 6.5ZM149.1 284.9a3 3 0 0 1-2.55-1.42 3 3 0 0 1-2.55 1.42h-5.8a3 3 0 0 1-3-3v-.9a3 3 0 0 1 1.9-2.8v-14.3a3 3 0 0 1-1.9-2.8v-.8a3 3 0 0 1 3-3h7.1c2.86 0 5.15.77 6.82 2.28l.1.1c.95.95 2.08 2.7 2.08 5.62a8.42 8.42 0 0 1-3.64 7.1l2.33 5.73a3 3 0 0 1 2.61 2.97v.8a3 3 0 0 1-3 3h-3.5Zm-4-17.7c.4-.03.7-.14.88-.32.1-.1.22-.5.22-1.28 0-.59-.1-1.02-.27-1.3-.1-.06-.33-.15-.83-.18v3.07Zm114.4 17.6c-.53 0-1.02-.14-1.45-.37-.38.17-.8.27-1.25.27h-.8c-.46 0-.9-.1-1.3-.3a3 3 0 0 1-1.3.3h-3.8a3 3 0 0 1-3-3v-.7a3 3 0 0 1 1.5-2.6v-14.65a3 3 0 0 1-1.6-2.65v-.8a3 3 0 0 1 3-3h3.6a3 3 0 0 1 2.93 2.37l.88 4.1.97-4.15a3 3 0 0 1 2.92-2.32h4a3 3 0 0 1 3 3v.8a3 3 0 0 1-1.6 2.65l.1 14.6a3 3 0 0 1 1.6 2.65v.8a3 3 0 0 1-3 3h-5.4Zm-52 0a3 3 0 0 1-3-3v-.8a3 3 0 0 1 3-3h1v-13.9h-1a3 3 0 0 1-3-3v-.8a3 3 0 0 1 3-3h10a3 3 0 0 1 3 3v.8a3 3 0 0 1-3 3h-1V278h1a3 3 0 0 1 3 3v.8a3 3 0 0 1-3 3h-10Zm-15.2 0c-.53 0-1.02-.14-1.45-.37-.38.17-.8.27-1.25.27h-.8c-.46 0-.9-.1-1.3-.3a3 3 0 0 1-1.3.3h-3.8a3 3 0 0 1-3-3v-.7a3 3 0 0 1 1.5-2.6v-14.65a3 3 0 0 1-1.6-2.65v-.8a3 3 0 0 1 3-3h3.6a3 3 0 0 1 2.94 2.37l.87 4.1.97-4.15a3 3 0 0 1 2.92-2.32h4a3 3 0 0 1 3 3v.8a3 3 0 0 1-1.59 2.65l.08 14.6a3 3 0 0 1 1.61 2.65v.8a3 3 0 0 1-3 3h-5.4Zm-76.8 0a3 3 0 0 1-3-3v-.8a3 3 0 0 1 2-2.83V263.9a3 3 0 0 1-1.9-2.79v-.8a3 3 0 0 1 3-3h7.4c2.98 0 5.27.78 7.03 2.39l.1.09a8.3 8.3 0 0 1 2.37 6.02c0 2.48-.8 4.54-2.38 6.12a9.44 9.44 0 0 1-6.72 2.78h-.9v3.47a3 3 0 0 1 2 2.83v.8a3 3 0 0 1-3 3h-6Zm7.2-16.9c.8 0 1.15-.21 1.4-.44.19-.16.4-.67.4-1.56 0-1.16-.35-1.51-.52-1.68 0 0-.28-.2-1.38-.22v3.9h.1Zm112 16.8c-2.62 0-4.74-.8-6.32-2.38a8.15 8.15 0 0 1-2.28-5.92v-12.7a3 3 0 0 1-1.7-2.7v-.8a3 3 0 0 1 3-3h5.5a3 3 0 0 1 2.35 1.13 3 3 0 0 1 2.35-1.13h4.5a3 3 0 0 1 3 3v.8a3 3 0 0 1-1.9 2.8v12.5a8.17 8.17 0 0 1-2.47 6.01 8.68 8.68 0 0 1-6.03 2.4Zm-.45-7.09c.22.07.5.09.75.09.55 0 .84-.06.96-.1l.15-.14c.34-.3.39-.86.39-1.16v-12.5a3 3 0 0 1-1.25-.94 3 3 0 0 1-1.05.84V276.58c-.03.48 0 .82.05 1.03Zm-73.65 6.89a3 3 0 0 1-3-3v-.5a3 3 0 0 1 1.9-2.8v-14.3a3 3 0 0 1-1.9-2.8v-.8a3 3 0 0 1 3-3h12.3a3 3 0 0 1 2.85 2.05l1.4 4.2a3 3 0 0 1-1.9 3.8l-.6.2c-.12.04-.23.07-.35.09v5.76c.28.01.57.06.85.15l.6.2a3 3 0 0 1 1.93 3.67l-1.4 4.9a3 3 0 0 1-2.88 2.18h-12.8Zm8.3-6.7c.35 0 1.03 0 1.75-1h-.15a3 3 0 0 1-3-3v4h1.4Zm-1.4-11.4a3 3 0 0 1 1.34-2.5h-1.34v2.8-.3Zm105.2 7.6a3 3 0 0 1-3-3v-1.1a3 3 0 0 1 3-3h13.9a3 3 0 0 1 3 3v1.1a3 3 0 0 1-3 3h-13.9Zm-179.3 0a3 3 0 0 1-3-3v-1.1a3 3 0 0 1 3-3h13.9a3 3 0 0 1 3 3v1.1a3 3 0 0 1-3 3H93.4Z" class="cls-1"/>
    <path d="M93.4 269.9h13.9v1.1H93.4v-1.1Zm26.1 1.8v8.3c0 .7.4 1 1.1 1h.9v.8h-6v-.8h.9c.8 0 1.1-.3 1.1-1v-17.9c0-.7-.4-1-1.1-1h-.8v-.8h7.4c2.2 0 3.8.5 5 1.6 1 1 1.5 2.3 1.5 3.9 0 1.7-.5 3-1.5 4a6.42 6.42 0 0 1-4.6 1.9h-3.9Zm3.2-.8c1.4 0 2.5-.4 3.4-1.2.9-.8 1.4-2.1 1.4-3.8s-.5-2.9-1.4-3.8c-.8-.8-2-1.1-3.6-1.1h-1.8c-.8 0-1.1.3-1.1 1v8.9h3.1Zm27.4-9.1c.8.8 1.2 2 1.2 3.5 0 1.6-.5 2.8-1.4 3.8s-2 1.5-3.1 1.8l3.8 9.3c.3.6.8.9 1.2.9h.8v.8h-3.5l-4.1-10.8h-2.9v9c0 .7.4 1 1.1 1h.8v.8h-5.8v-.9h.8c.8 0 1.1-.3 1.1-1v-17.9c0-.7-.4-1-1.1-1h-.8v-.8h7.1c2.1 0 3.7.5 4.8 1.5Zm-8 8.4h2.8c1.3 0 2.4-.4 3.2-1.2.8-.8 1.1-1.9 1.1-3.4s-.4-2.6-1.1-3.4c-.8-.8-2-1.1-3.5-1.1h-1.4c-.8 0-1.1.3-1.1 1v8.1Zm18.5-9.1v-.8h12.3l1.4 4.2-.6.2c-1.3-2.5-2.9-3.8-4.6-3.8h-3.5c-.8 0-1.1.3-1.1 1v7.8h3.6c1.6 0 2.4-.8 2.4-2.5v-.8h.8v7.4h-.8v-.5c0-1.9-.8-2.9-2.4-2.9h-3.6v9.4c0 .7.4 1 1.1 1h3.3c2.4 0 4.2-1.5 5.3-4.4l.6.2-1.4 4.9h-12.8v-.5h.8c.8 0 1.1-.3 1.1-1v-17.9c0-.7-.4-1-1.1-1h-.8Zm35.5 18.9c0 .7.4 1 1.1 1h.5v.8h-5.4v-.8h.6c.8 0 1.1-.3 1.1-1v-16.4h-.2l-4.2 18.1h-.8l-3.9-17.8h-.2v16c0 .7.4 1 1.1 1h.4v.8h-3.8v-.7h.4c.8 0 1.1-.3 1.1-1v-17.9c0-.7-.4-1-1.1-1h-.5v-.8h3.6l3.6 16.8h.2l3.9-16.8h4v.8h-.5c-.8 0-1.1.3-1.1 1l.1 17.9Zm11.4-18.9v-.8h10v.8h-2.9c-.8 0-1.1.3-1.1 1V280c0 .7.4 1 1.1 1h2.9v.8h-10v-.8h2.9c.8 0 1.1-.3 1.1-1v-17.9c0-.7-.4-1-1.1-1h-2.9Zm24.6 18.7c.7.6 1.6.9 2.9.9 1.4 0 2.5-.3 3.1-1 .9-.8 1.4-2 1.4-3.4V262c0-.7-.4-1-1.1-1h-.8v-.8h4.5v.8h-.8c-.8 0-1.1.3-1.1 1v14.3c0 1.5-.5 2.8-1.5 3.8a5.67 5.67 0 0 1-4 1.6c-1.8 0-3.2-.5-4.2-1.5-.9-.9-1.4-2.2-1.4-3.8V262c0-.7-.4-1-1.1-1h-.6v-.8h5.5v.8h-.6c-.8 0-1.1.3-1.1 1v14.4c-.1 1.7.3 2.9.9 3.4Zm31.2.2c0 .7.4 1 1.1 1h.5v.8h-5.4v-.8h.6c.8 0 1.1-.3 1.1-1v-16.4h-.2l-4.2 18.1h-.8l-3.9-17.8h-.2v16c0 .7.4 1 1.1 1h.4v.8h-3.8v-.7h.4c.8 0 1.1-.3 1.1-1v-17.9c0-.7-.4-1-1.1-1h-.5v-.8h3.6l3.6 16.8h.2l3.9-16.8h4v.8h-.5c-.8 0-1.1.3-1.1 1l.1 17.9Zm9.4-10.1h13.9v1.1h-13.9v-1.1Z" class="cls-1"/>
  </g>
</svg>
